<svg width="1500" height="1297" viewBox="0 0 1500 1297" fill="none" xmlns="http://www.w3.org/2000/svg">
<path d="M443.788 957.183C429.538 859.803 428.078 754.823 388.418 708.943C336.278 648.633 323.248 650.793 188.138 590.123C137.258 567.273 64.6477 534.673 27.9277 473.173C-51.6623 339.883 47.7377 88.0827 213.838 16.2727C332.028 -34.8273 382.258 49.1927 639.448 66.4727C921.448 85.4127 981.018 -7.52729 1175.74 50.1127C1229.63 66.0627 1421.4 122.833 1480.9 289.433C1538.98 452.053 1450.62 662.223 1330.9 696.783C1218.53 729.223 1305.59 640.893 1186.9 696.073C1178.53 699.963 1195.73 691.073 1171.53 748.473C1157.48 781.783 1198.61 943.473 1197.75 978.133C1191.42 1228.94 945.418 1324.94 755.658 1289.94C646.818 1269.79 475.068 1170.94 443.788 957.183Z" fill="#E6FFFE"/>
</svg>
