<svg width="2366" height="1080" viewBox="0 0 2366 1080" fill="none" xmlns="http://www.w3.org/2000/svg">
<path d="M2227.66 92.3943V1045.62C2227.6 1048.69 2226.4 1051.61 2224.31 1053.74C2222.23 1055.88 2219.43 1057.05 2216.52 1057H807.786C804.889 1057.05 802.093 1055.88 800.008 1053.75C797.923 1051.62 796.719 1048.7 796.66 1045.64V92.3943C796.712 89.3222 797.913 86.3974 799.998 84.2616C802.084 82.1257 804.885 80.9533 807.786 81.0014H2216.52C2219.43 80.9533 2222.23 82.1254 2224.32 84.261C2226.4 86.3965 2227.61 89.3213 2227.66 92.3943V92.3943Z" fill="white"/>
<path d="M1567.03 616.183C1552.78 518.803 1551.32 413.823 1511.66 367.943C1459.52 307.633 1446.49 309.793 1311.38 249.123C1260.5 226.273 1187.89 193.673 1151.17 132.173C1071.58 -1.11729 1170.98 -252.917 1337.08 -324.727C1455.27 -375.827 1505.5 -291.807 1762.69 -274.527C2044.69 -255.587 2104.26 -348.527 2298.98 -290.887C2352.87 -274.937 2544.64 -218.167 2604.14 -51.5673C2662.22 111.053 2573.86 321.223 2454.14 355.783C2341.77 388.223 2428.83 299.893 2310.14 355.073C2301.77 358.963 2318.97 350.073 2294.77 407.473C2280.72 440.783 2321.85 602.473 2320.99 637.133C2314.66 887.943 2068.66 983.943 1878.9 948.943C1770.06 928.793 1598.31 829.943 1567.03 616.183Z" fill="#E6FFFE"/>
<path d="M1567.03 616.183C1552.78 518.803 1551.32 413.823 1511.66 367.943C1459.52 307.633 1446.49 309.793 1311.38 249.123C1260.5 226.273 1187.89 193.673 1151.17 132.173C1071.58 -1.11729 1170.98 -252.917 1337.08 -324.727C1455.27 -375.827 1505.5 -291.807 1762.69 -274.527C2044.69 -255.587 2104.26 -348.527 2298.98 -290.887C2352.87 -274.937 2544.64 -218.167 2604.14 -51.5673C2662.22 111.053 2573.86 321.223 2454.14 355.783C2341.77 388.223 2428.83 299.893 2310.14 355.073C2301.77 358.963 2318.97 350.073 2294.77 407.473C2280.72 440.783 2321.85 602.473 2320.99 637.133C2314.66 887.943 2068.66 983.943 1878.9 948.943C1770.06 928.793 1598.31 829.943 1567.03 616.183Z" fill="#E6FFFE"/>
<path d="M1966.59 392.753H1960.26V719.993H1966.59V392.753Z" fill="#4FBABB"/>
<path d="M2026.88 393.423V356.073C2010.87 366.955 1995.68 378.987 1981.42 392.073C1996.58 390.333 2011.73 391.423 2026.88 393.423Z" fill="#4FBABB"/>
<path d="M2026.88 276.643C2011.88 274.643 1996.93 273.563 1981.96 275.223C1996.96 286.103 2011.91 299.593 2026.88 313.963V276.643Z" fill="#4FBABB"/>
<path d="M2068.99 282.943V319.943C2084.83 309.17 2099.87 297.269 2113.99 284.333C2099.02 286.043 2084.01 284.943 2068.99 282.943Z" fill="#4FBABB"/>
<path d="M2103.44 322.603C2114.39 322.418 2125.26 320.76 2135.76 317.673V290.943C2125.74 302.242 2114.94 312.822 2103.44 322.603V322.603Z" fill="#4FBABB"/>
<path d="M2103.44 364.713C2113.5 372.979 2124.32 380.271 2135.76 386.493V359.783C2125.26 362.875 2114.39 364.533 2103.44 364.713V364.713Z" fill="#4FBABB"/>
<path d="M1992.03 353.803C1981.22 354.011 1970.49 355.662 1960.12 358.713V385.093C1970.02 373.935 1980.68 363.48 1992.03 353.803V353.803Z" fill="#4FBABB"/>
<path d="M2068.99 399.743C2083.83 401.743 2098.67 402.803 2113.51 401.213C2098.67 390.383 2083.83 376.993 2068.99 362.753V399.743Z" fill="#4FBABB"/>
<path d="M1992.03 311.693C1982.09 303.552 1971.41 296.367 1960.12 290.233V316.603C1970.49 313.552 1981.22 311.901 1992.03 311.693V311.693Z" fill="#4FBABB"/>
<path d="M2061.25 326.943V280.683L2059.63 280.433C2055.74 279.839 2051.85 279.229 2047.94 278.603C2044.03 277.976 2040.13 277.369 2036.24 276.783L2034.63 276.533V322.803C2009.19 319.013 1983.76 316.803 1958.32 324.883V351.503C1983.76 343.393 2009.19 345.643 2034.63 349.433V395.703L2036.23 395.953C2040.17 396.553 2044.11 397.169 2048.06 397.803C2051.92 398.413 2055.77 399.023 2059.62 399.603L2061.25 399.863V353.583C2086.69 357.373 2112.12 359.583 2137.56 351.503V324.883C2112.12 333.003 2086.66 330.753 2061.25 326.943Z" fill="#4FBABB"/>
<path d="M2006.03 353.443C1989.16 366.126 1973.55 380.394 1959.4 396.053C1959.68 395.973 1959.96 395.923 1960.24 395.853C1962.47 395.233 1964.69 394.673 1966.92 394.203H1967C1969.27 393.733 1971.54 393.353 1973.81 393.013C1974.07 393.013 1974.32 392.913 1974.58 392.883C1989.09 379.014 2004.69 366.327 2021.22 354.943C2016.16 354.293 2011.09 353.783 2006.03 353.443Z" fill="#4FBABB"/>
<path d="M2090.91 322.193C2107.77 309.562 2123.39 295.354 2137.56 279.763C2137.32 279.823 2137.09 279.863 2136.85 279.933C2134.59 280.543 2132.33 281.103 2130.07 281.563L2129.37 281.693C2127.32 282.103 2125.26 282.443 2123.21 282.743L2122.36 282.883C2107.84 296.698 2092.25 309.338 2075.73 320.683C2080.79 321.323 2085.85 321.843 2090.91 322.193Z" fill="#4FBABB"/>
<path d="M2081.75 364.633C2097.29 378.703 2112.83 391.193 2128.37 400.093L2128.71 399.993C2130.71 399.486 2132.71 398.916 2134.71 398.283V390.943C2122.12 384.553 2109.53 375.633 2096.93 365.233C2091.88 365.263 2086.81 365.033 2081.75 364.633Z" fill="#4FBABB"/>
<path d="M2013.82 312.233C1998.28 298.183 1982.74 285.753 1967.2 276.923H1967.03C1965.14 277.416 1963.25 277.959 1961.36 278.553V286.283C1973.79 292.583 1986.22 301.363 1998.65 311.583C2003.66 311.613 2008.76 311.833 2013.82 312.233Z" fill="#4FBABB"/>
<path d="M1815.59 286.523L1808.84 270.343L1809.77 287.843L1809.05 288.013L1805.05 270.283L1806.96 269.853L1805.29 262.553L1797.66 242.723L1799.16 260.723L1777.16 234.863L1771.38 209.483L1771.58 209.433L1773.13 209.083L1771.47 201.783L1765.47 185.973L1766.87 202.833H1766.79C1756.79 188.833 1748.49 174.423 1742.6 159.603L1742.51 159.203L1746.27 158.343L1745.64 155.603L1741.88 156.463L1739.45 145.803C1739.86 145.512 1740.17 145.108 1740.35 144.64C1740.53 144.173 1740.57 143.663 1740.47 143.173C1740.36 142.683 1740.11 142.235 1739.75 141.885C1739.4 141.535 1738.94 141.297 1738.45 141.203L1737.65 137.703C1737.64 137.56 1737.6 137.421 1737.53 137.296C1737.46 137.171 1737.36 137.062 1737.24 136.977C1737.13 136.892 1737 136.833 1736.86 136.804C1736.72 136.775 1736.57 136.777 1736.43 136.808C1736.29 136.84 1736.16 136.902 1736.05 136.989C1735.93 137.076 1735.84 137.187 1735.77 137.313C1735.7 137.44 1735.66 137.579 1735.65 137.722C1735.65 137.865 1735.67 138.009 1735.72 138.143L1736.51 141.643C1736.1 141.933 1735.79 142.337 1735.61 142.805C1735.43 143.272 1735.39 143.783 1735.49 144.273C1735.6 144.762 1735.85 145.21 1736.21 145.56C1736.56 145.911 1737.02 146.148 1737.51 146.243L1739.94 156.903L1736.19 157.763L1736.81 160.493L1740.57 159.643L1740.66 160.043C1740.67 160.089 1740.69 160.132 1740.72 160.173C1741.99 176.657 1741.02 193.238 1737.84 209.463L1737.53 209.533L1731.48 193.723L1732.89 210.593L1734.55 217.893L1736.1 217.533H1736.31L1742.09 242.913L1733.51 275.743L1727.05 258.853L1728.81 280.013L1730.47 287.313L1732.38 286.873L1736.38 304.603L1735.03 304.913L1728.28 288.733L1729.21 306.233L1730.88 313.533L1734.41 312.733L1752.41 391.523L1756.04 390.703L1767.51 440.943L1769.86 451.243L1781.86 504.063L1784.21 514.363L1796.21 567.183L1798.56 577.493L1809.77 626.653L1882.39 610.103L1871.25 560.943L1868.9 550.643L1856.9 497.823L1854.55 487.523L1842.55 434.703L1840.2 424.393L1828.66 374.103L1832.3 373.273L1814.3 294.483L1817.84 293.673L1816.18 286.373L1815.59 286.523ZM1744.07 299.523L1741.19 286.943C1741.93 286.646 1742.7 286.428 1743.49 286.293C1744.26 286.07 1745.04 285.932 1745.84 285.883L1748.72 298.513C1747.98 298.818 1747.22 299.039 1746.43 299.173C1745.66 299.373 1744.87 299.491 1744.07 299.523V299.523ZM1754.32 297.193L1751.45 284.563C1752.19 284.257 1752.95 284.036 1753.74 283.903C1754.51 283.685 1755.29 283.551 1756.09 283.503L1758.97 296.133C1758.23 296.431 1757.46 296.649 1756.68 296.783C1755.91 297.006 1755.12 297.144 1754.32 297.193ZM1764.58 294.853L1761.66 282.223C1762.4 281.923 1763.17 281.701 1763.95 281.563C1764.72 281.345 1765.51 281.211 1766.31 281.163L1769.18 293.793C1768.44 294.093 1767.67 294.314 1766.89 294.453C1766.14 294.667 1765.36 294.801 1764.58 294.853V294.853ZM1774.83 292.513L1771.95 279.883C1772.69 279.584 1773.46 279.366 1774.24 279.233C1775.01 279.009 1775.8 278.872 1776.6 278.823L1779.48 291.453C1777.97 291.977 1776.41 292.332 1774.83 292.513V292.513ZM1785.08 290.183L1782.2 277.553C1782.94 277.246 1783.71 277.025 1784.5 276.893C1785.27 276.675 1786.05 276.54 1786.85 276.493L1789.73 289.123C1788.99 289.421 1788.22 289.639 1787.43 289.773C1786.66 289.996 1785.88 290.133 1785.08 290.183V290.183ZM1795.33 287.843L1792.45 275.213C1793.19 274.914 1793.96 274.693 1794.75 274.553C1795.52 274.335 1796.3 274.2 1797.1 274.153L1799.98 286.783C1799.24 287.082 1798.47 287.303 1797.68 287.443C1796.91 287.661 1796.13 287.795 1795.33 287.843V287.843ZM1776.66 392.633C1776.54 392.038 1776.65 391.419 1776.98 390.91C1777.31 390.4 1777.83 390.041 1778.42 389.909C1779.01 389.778 1779.63 389.885 1780.15 390.208C1780.66 390.53 1781.03 391.042 1781.17 391.633L1791.17 435.543L1786.66 436.543L1776.66 392.633ZM1771.88 381.503L1769.09 369.303C1770.74 368.757 1772.44 368.369 1774.16 368.143L1776.95 380.353C1776.14 380.665 1775.3 380.9 1774.44 381.053C1773.6 381.289 1772.73 381.44 1771.86 381.503H1771.88ZM1786.6 390.363C1786.48 389.768 1786.59 389.149 1786.92 388.64C1787.25 388.13 1787.77 387.771 1788.36 387.639C1788.95 387.508 1789.57 387.615 1790.09 387.938C1790.6 388.26 1790.97 388.772 1791.11 389.363L1801.11 433.273L1796.6 434.273L1786.6 390.363ZM1783.06 378.963L1780.27 366.753C1781.08 366.44 1781.92 366.206 1782.78 366.053C1783.62 365.823 1784.47 365.67 1785.34 365.593L1788.13 377.803C1787.32 378.115 1786.48 378.35 1785.62 378.503C1784.77 378.726 1783.91 378.873 1783.04 378.943L1783.06 378.963ZM1799.31 375.253C1798.5 375.565 1797.66 375.8 1796.8 375.953C1795.96 376.182 1795.11 376.336 1794.24 376.413L1791.46 364.203C1792.27 363.887 1793.11 363.653 1793.96 363.503C1794.8 363.272 1795.66 363.118 1796.53 363.043L1799.31 375.253ZM1798.31 385.333C1798.61 385.265 1798.91 385.256 1799.21 385.307C1799.51 385.357 1799.8 385.467 1800.05 385.628C1800.31 385.79 1800.53 386.001 1800.7 386.249C1800.88 386.497 1801 386.777 1801.07 387.073L1811.07 430.973L1806.56 431.973L1796.56 388.063C1796.43 387.474 1796.54 386.859 1796.86 386.348C1797.18 385.838 1797.68 385.473 1798.27 385.333H1798.31ZM1808.92 442.333L1813.43 441.333L1825.43 494.143L1820.92 495.143L1808.92 442.333ZM1815.53 496.383L1811.02 497.383L1799.02 444.563L1803.53 443.563L1815.53 496.383ZM1793.53 445.833L1805.53 498.653L1801.03 499.653L1789.03 446.833L1793.53 445.833ZM1807.89 508.943L1819.89 561.763L1815.38 562.763L1803.38 509.943L1807.89 508.943ZM1813.33 507.703L1817.84 506.703L1829.84 559.513L1825.33 560.513L1813.33 507.703ZM1823.27 505.443L1827.78 504.443L1839.78 557.263L1835.27 558.263L1823.27 505.443ZM1833.21 503.173L1837.72 502.173L1849.72 554.993L1845.21 555.993L1833.21 503.173ZM1830.87 492.873L1818.87 440.053L1823.38 439.053L1835.38 491.873L1830.87 492.873ZM1816.48 429.743L1806.48 385.843C1806.36 385.248 1806.47 384.629 1806.8 384.12C1807.13 383.61 1807.65 383.251 1808.24 383.119C1808.83 382.988 1809.45 383.095 1809.97 383.418C1810.48 383.74 1810.85 384.252 1810.99 384.843L1820.99 428.753L1816.48 429.743ZM1810.48 372.743C1808.83 373.288 1807.13 373.676 1805.41 373.903L1802.66 361.653C1803.47 361.337 1804.31 361.103 1805.16 360.953C1806 360.717 1806.86 360.566 1807.73 360.503L1810.48 372.743ZM1762.97 370.743L1765.75 382.953C1764.94 383.263 1764.1 383.497 1763.25 383.653C1762.41 383.888 1761.55 384.039 1760.68 384.103L1757.9 371.903C1758.71 371.584 1759.55 371.35 1760.41 371.203C1761.24 370.951 1762.1 370.781 1762.96 370.693L1762.97 370.743ZM1802.91 327.863C1802.97 328.153 1803.01 328.453 1803.06 328.753C1803.71 332.162 1803.54 335.676 1802.59 339.013C1802.46 339.433 1802.31 339.853 1802.17 340.263C1801.02 343.511 1799.13 346.453 1796.67 348.863C1796.35 349.173 1796.04 349.483 1795.67 349.773C1793.07 352.018 1789.99 353.634 1786.67 354.493L1786.04 354.673C1785.82 354.723 1785.6 354.743 1785.39 354.783C1782.02 355.459 1778.53 355.343 1775.21 354.443C1774.78 354.323 1774.37 354.183 1773.95 354.043C1770.68 352.943 1767.71 351.106 1765.27 348.673C1764.95 348.363 1764.64 348.053 1764.35 347.723C1762.05 345.143 1760.37 342.061 1759.47 338.723C1759.39 338.423 1759.29 338.143 1759.22 337.843C1759.22 337.703 1759.22 337.573 1759.15 337.433C1758.43 334.015 1758.52 330.476 1759.43 327.103C1759.55 326.673 1759.69 326.263 1759.83 325.843C1760.93 322.513 1762.8 319.488 1765.28 317.013C1765.6 316.703 1765.9 316.383 1766.28 316.093C1768.92 313.755 1772.08 312.082 1775.5 311.213C1775.71 311.153 1775.91 311.083 1776.13 311.033C1776.35 310.983 1776.57 310.963 1776.78 310.913C1780.24 310.223 1783.81 310.364 1787.2 311.323C1787.63 311.443 1788.04 311.593 1788.45 311.743C1791.76 312.897 1794.76 314.811 1797.2 317.333C1797.51 317.653 1797.82 317.963 1798.1 318.333C1800.38 320.979 1802 324.128 1802.83 327.523C1802.82 327.543 1802.87 327.673 1802.9 327.813L1802.91 327.863ZM1813.81 359.153C1814.62 358.837 1815.46 358.603 1816.31 358.453C1817.15 358.217 1818.01 358.066 1818.88 358.003L1821.66 370.203C1820.85 370.522 1820.01 370.757 1819.15 370.903C1818.31 371.138 1817.46 371.292 1816.59 371.363L1813.81 359.153ZM1766.66 394.943C1766.57 394.639 1766.55 394.321 1766.58 394.007C1766.62 393.693 1766.73 393.39 1766.89 393.118C1767.05 392.846 1767.26 392.609 1767.52 392.423C1767.78 392.238 1768.07 392.106 1768.38 392.038C1768.68 391.969 1769 391.965 1769.31 392.025C1769.62 392.084 1769.92 392.208 1770.18 392.386C1770.44 392.565 1770.66 392.795 1770.83 393.063C1771 393.331 1771.11 393.63 1771.16 393.943L1781.16 437.843L1776.65 438.843L1766.66 394.943ZM1779.01 449.163L1783.52 448.163L1795.52 500.973L1791.01 501.973L1779.01 449.163ZM1793.4 512.283L1797.91 511.283L1809.91 564.103L1805.4 565.103L1793.4 512.283ZM1820.47 620.623C1819.87 620.757 1819.24 620.65 1818.73 620.324C1818.21 619.998 1817.84 619.48 1817.7 618.883L1807.79 575.403L1812.3 574.403L1822.21 617.883C1822.32 618.463 1822.21 619.064 1821.89 619.563C1821.57 620.062 1821.08 620.423 1820.51 620.573L1820.47 620.623ZM1830.41 618.353C1830.11 618.421 1829.81 618.43 1829.51 618.379C1829.21 618.328 1828.92 618.219 1828.66 618.057C1828.41 617.896 1828.18 617.685 1828.01 617.437C1827.83 617.189 1827.71 616.909 1827.64 616.613L1817.73 573.133L1822.24 572.133L1832.15 615.603C1832.27 616.185 1832.16 616.792 1831.84 617.295C1831.53 617.799 1831.03 618.16 1830.45 618.303L1830.41 618.353ZM1840.35 616.093C1839.75 616.227 1839.13 616.119 1838.61 615.793C1838.09 615.467 1837.73 614.949 1837.59 614.353L1827.68 570.873L1832.18 569.873L1842.09 613.353C1842.21 613.933 1842.09 614.536 1841.78 615.037C1841.46 615.538 1840.96 615.898 1840.39 616.043L1840.35 616.093ZM1850.35 613.823C1849.75 613.957 1849.12 613.85 1848.61 613.524C1848.09 613.198 1847.72 612.68 1847.58 612.083L1837.66 568.553L1842.17 567.553L1852.08 611.033C1852.21 611.626 1852.09 612.245 1851.77 612.758C1851.44 613.27 1850.93 613.634 1850.34 613.773L1850.35 613.823ZM1860.29 611.553C1859.99 611.621 1859.69 611.63 1859.39 611.579C1859.09 611.528 1858.8 611.419 1858.54 611.257C1858.29 611.096 1858.06 610.885 1857.89 610.637C1857.71 610.389 1857.59 610.109 1857.52 609.813L1847.61 566.333L1852.12 565.333L1862.03 608.803C1862.15 609.392 1862.03 610.005 1861.71 610.51C1861.38 611.014 1860.87 611.371 1860.28 611.503L1860.29 611.553ZM1871.98 606.553C1872.1 607.147 1871.99 607.766 1871.66 608.276C1871.33 608.785 1870.81 609.144 1870.22 609.276C1869.63 609.407 1869 609.3 1868.49 608.978C1867.98 608.655 1867.61 608.143 1867.47 607.553L1857.56 564.073L1862.06 563.073L1871.98 606.553ZM1859.72 552.763L1855.21 553.763L1843.21 500.953L1847.72 499.953L1859.72 552.763ZM1845.33 489.643L1840.82 490.643L1828.82 437.823L1833.33 436.823L1845.33 489.643ZM1826.43 427.553L1816.43 383.643C1816.31 383.048 1816.42 382.429 1816.75 381.92C1817.08 381.41 1817.6 381.051 1818.19 380.919C1818.78 380.788 1819.4 380.895 1819.92 381.218C1820.43 381.54 1820.8 382.052 1820.94 382.643L1830.94 426.553L1826.43 427.553Z" fill="#4FBABB"/>
<path d="M1786.3 322.653C1786.01 322.558 1785.71 322.558 1785.42 322.653C1785.07 322.766 1784.77 323.009 1784.59 323.333C1784.44 323.608 1784.39 323.925 1784.44 324.232C1784.5 324.54 1784.65 324.821 1784.88 325.033L1780.73 331.923L1771.1 328.053L1769.83 327.553L1764.94 325.553L1763.71 325.063L1761.18 324.063L1763.64 325.243L1764.83 325.813L1769.59 328.093L1770.79 328.663L1780.02 333.083L1777.5 337.263L1779.24 338.213L1781.42 333.763L1784.58 335.273C1784.61 335.524 1784.7 335.763 1784.85 335.968C1785 336.173 1785.2 336.338 1785.42 336.448C1785.65 336.557 1785.9 336.608 1786.16 336.595C1786.41 336.582 1786.65 336.505 1786.87 336.373L1788.81 337.293L1789.61 335.483L1787.61 334.673C1787.56 334.432 1787.45 334.208 1787.29 334.019C1787.13 333.831 1786.93 333.684 1786.7 333.592C1786.47 333.5 1786.23 333.466 1785.98 333.492C1785.74 333.519 1785.5 333.605 1785.3 333.743L1782.08 332.453L1785.55 325.373C1785.79 325.436 1786.04 325.434 1786.28 325.368C1786.52 325.302 1786.74 325.173 1786.91 324.995C1787.08 324.816 1787.21 324.596 1787.27 324.355C1787.33 324.113 1787.32 323.861 1787.25 323.623C1787.16 323.336 1786.99 323.084 1786.75 322.903L1787.19 322.023L1789.25 317.813L1786.83 321.813L1786.3 322.653Z" fill="#4FBABB"/>
<path d="M2032.37 571.363L1997.66 661.943C1997.51 662.314 1997.44 662.711 1997.45 663.11C1997.46 663.51 1997.54 663.904 1997.71 664.269C1997.87 664.634 1998.1 664.963 1998.39 665.237C1998.68 665.51 1999.03 665.723 1999.4 665.863L2011.76 670.603C2012.13 670.75 2012.53 670.822 2012.93 670.813C2013.33 670.805 2013.72 670.716 2014.09 670.553C2014.45 670.39 2014.78 670.156 2015.06 669.864C2015.33 669.572 2015.54 669.228 2015.68 668.853L2050.4 578.303C2050.55 577.931 2050.62 577.533 2050.61 577.134C2050.6 576.734 2050.51 576.339 2050.35 575.974C2050.19 575.609 2049.95 575.28 2049.66 575.007C2049.37 574.733 2049.03 574.521 2048.65 574.383L2036.29 569.643C2035.92 569.495 2035.52 569.422 2035.13 569.428C2034.73 569.435 2034.33 569.52 2033.97 569.681C2033.6 569.841 2033.27 570.072 2033 570.361C2032.73 570.65 2032.51 570.99 2032.37 571.363V571.363Z" fill="#FEB80C"/>
<path d="M2049.66 580.133L2046.66 578.973C2046.58 578.939 2046.51 578.875 2046.47 578.793C2046.43 578.711 2046.43 578.618 2046.46 578.533C2046.5 578.448 2046.56 578.378 2046.64 578.338C2046.73 578.297 2046.82 578.288 2046.91 578.313L2049.91 579.483L2049.66 580.133Z" fill="white"/>
<path d="M2046.51 583.463C2046.5 583.479 2046.5 583.498 2046.5 583.517C2046.5 583.535 2046.5 583.554 2046.51 583.571C2046.52 583.588 2046.53 583.603 2046.54 583.616C2046.56 583.628 2046.57 583.637 2046.59 583.643L2048.11 584.233L2048.21 583.963L2046.69 583.383C2046.67 583.375 2046.65 583.37 2046.64 583.37C2046.62 583.37 2046.6 583.374 2046.58 583.381C2046.56 583.389 2046.55 583.4 2046.54 583.414C2046.52 583.428 2046.52 583.445 2046.51 583.463V583.463Z" fill="white"/>
<path d="M2043.22 592.043C2043.21 592.06 2043.21 592.078 2043.21 592.097C2043.21 592.115 2043.21 592.134 2043.22 592.151C2043.23 592.168 2043.24 592.183 2043.25 592.196C2043.27 592.208 2043.28 592.217 2043.3 592.223L2044.82 592.813L2044.92 592.543L2043.4 591.963C2043.38 591.955 2043.36 591.95 2043.35 591.95C2043.33 591.95 2043.31 591.954 2043.29 591.961C2043.27 591.969 2043.26 591.98 2043.25 591.994C2043.23 592.008 2043.23 592.025 2043.22 592.043V592.043Z" fill="white"/>
<path d="M2039.93 600.623C2039.92 600.64 2039.92 600.658 2039.92 600.677C2039.92 600.695 2039.92 600.714 2039.93 600.731C2039.94 600.748 2039.95 600.763 2039.96 600.776C2039.98 600.788 2039.99 600.797 2040.01 600.803L2041.53 601.393L2041.63 601.123L2040.11 600.543C2040.09 600.535 2040.07 600.53 2040.06 600.53C2040.04 600.53 2040.02 600.534 2040 600.542C2039.98 600.549 2039.97 600.56 2039.96 600.574C2039.94 600.588 2039.94 600.605 2039.93 600.623V600.623Z" fill="white"/>
<path d="M2036.66 609.203C2036.65 609.237 2036.65 609.275 2036.67 609.308C2036.68 609.341 2036.71 609.368 2036.74 609.383L2038.26 609.973L2038.37 609.703L2036.84 609.123C2036.82 609.115 2036.8 609.111 2036.79 609.11C2036.77 609.11 2036.75 609.114 2036.73 609.122C2036.71 609.129 2036.7 609.14 2036.69 609.154C2036.67 609.168 2036.67 609.185 2036.66 609.203Z" fill="white"/>
<path d="M2033.35 617.783C2033.34 617.817 2033.34 617.854 2033.36 617.888C2033.37 617.921 2033.4 617.947 2033.43 617.963L2034.96 618.553L2035.06 618.283L2033.53 617.703C2033.51 617.695 2033.49 617.69 2033.48 617.69C2033.46 617.69 2033.44 617.694 2033.42 617.701C2033.4 617.709 2033.39 617.72 2033.38 617.734C2033.36 617.748 2033.36 617.765 2033.35 617.783V617.783Z" fill="white"/>
<path d="M2030.07 626.333C2030.06 626.369 2030.06 626.408 2030.07 626.444C2030.09 626.479 2030.11 626.507 2030.15 626.523L2031.68 627.103L2031.78 626.843L2030.25 626.253C2030.22 626.244 2030.18 626.247 2030.15 626.262C2030.11 626.276 2030.09 626.301 2030.07 626.333V626.333Z" fill="white"/>
<path d="M2026.78 634.943C2026.77 634.979 2026.77 635.018 2026.78 635.054C2026.8 635.089 2026.82 635.117 2026.86 635.133L2028.39 635.713L2028.49 635.453L2026.97 634.863C2026.93 634.851 2026.9 634.853 2026.86 634.868C2026.83 634.883 2026.8 634.909 2026.78 634.943V634.943Z" fill="white"/>
<path d="M2023.49 643.493C2023.48 643.511 2023.48 643.531 2023.48 643.551C2023.48 643.57 2023.48 643.59 2023.49 643.608C2023.5 643.626 2023.51 643.642 2023.53 643.655C2023.54 643.668 2023.56 643.677 2023.58 643.683L2025.1 644.263L2025.2 644.003L2023.68 643.413C2023.64 643.399 2023.6 643.4 2023.57 643.415C2023.53 643.43 2023.51 643.458 2023.49 643.493Z" fill="white"/>
<path d="M2020.21 652.073C2020.2 652.09 2020.2 652.109 2020.2 652.129C2020.2 652.148 2020.2 652.167 2020.21 652.185C2020.22 652.203 2020.23 652.219 2020.24 652.233C2020.26 652.246 2020.27 652.256 2020.29 652.263L2021.81 652.843L2021.91 652.583L2020.39 651.993C2020.36 651.98 2020.32 651.981 2020.28 651.996C2020.25 652.011 2020.22 652.038 2020.21 652.073V652.073Z" fill="white"/>
<path d="M2016.92 660.653C2016.91 660.67 2016.91 660.689 2016.91 660.709C2016.91 660.728 2016.91 660.747 2016.92 660.765C2016.93 660.783 2016.94 660.799 2016.95 660.812C2016.97 660.826 2016.98 660.836 2017 660.843L2018.52 661.423L2018.62 661.163L2017.1 660.573C2017.07 660.559 2017.03 660.561 2016.99 660.576C2016.96 660.591 2016.93 660.618 2016.92 660.653V660.653Z" fill="white"/>
<path d="M2046.39 588.713L2043.39 587.553C2043.31 587.515 2043.24 587.451 2043.21 587.37C2043.17 587.289 2043.17 587.198 2043.19 587.113C2043.23 587.028 2043.29 586.958 2043.37 586.918C2043.46 586.878 2043.55 586.869 2043.64 586.893L2046.64 588.063L2046.39 588.713Z" fill="white"/>
<path d="M2039.88 595.663C2039.84 595.749 2039.84 595.847 2039.87 595.934C2039.91 596.022 2039.97 596.093 2040.06 596.133L2043.06 597.293L2043.31 596.643L2040.31 595.473C2040.23 595.443 2040.14 595.446 2040.06 595.481C2039.98 595.517 2039.91 595.582 2039.88 595.663V595.663Z" fill="white"/>
<path d="M2036.59 604.243C2036.56 604.329 2036.55 604.426 2036.59 604.513C2036.62 604.6 2036.69 604.671 2036.77 604.713L2039.77 605.873L2040.03 605.223L2037.03 604.053C2036.95 604.02 2036.85 604.021 2036.77 604.057C2036.69 604.093 2036.62 604.159 2036.59 604.243V604.243Z" fill="white"/>
<path d="M2033.3 612.823C2033.27 612.909 2033.26 613.006 2033.3 613.093C2033.33 613.18 2033.4 613.251 2033.48 613.293L2036.48 614.453L2036.74 613.803L2033.74 612.633C2033.66 612.6 2033.56 612.601 2033.48 612.637C2033.4 612.673 2033.33 612.739 2033.3 612.823V612.823Z" fill="white"/>
<path d="M2030.01 621.403C2029.98 621.486 2029.98 621.579 2030.01 621.662C2030.05 621.744 2030.12 621.809 2030.2 621.843L2033.25 623.013L2033.5 622.353L2030.45 621.183C2030.36 621.159 2030.27 621.168 2030.19 621.209C2030.11 621.25 2030.04 621.319 2030.01 621.403V621.403Z" fill="white"/>
<path d="M2026.72 629.943C2026.69 630.026 2026.69 630.119 2026.72 630.202C2026.76 630.284 2026.83 630.349 2026.91 630.383L2029.96 631.553L2030.21 630.893L2027.16 629.723C2027.07 629.699 2026.98 629.708 2026.9 629.749C2026.82 629.79 2026.75 629.858 2026.72 629.943V629.943Z" fill="white"/>
<path d="M2023.43 638.563C2023.4 638.646 2023.4 638.738 2023.44 638.82C2023.47 638.902 2023.54 638.967 2023.62 639.003L2026.67 640.173L2026.92 639.513L2023.87 638.343C2023.78 638.319 2023.69 638.328 2023.61 638.369C2023.53 638.409 2023.46 638.478 2023.43 638.563Z" fill="white"/>
<path d="M2023.38 648.753L2020.38 647.583C2020.31 647.539 2020.25 647.47 2020.23 647.39C2020.2 647.31 2020.2 647.222 2020.23 647.143C2020.26 647.064 2020.32 646.999 2020.4 646.959C2020.47 646.918 2020.56 646.906 2020.64 646.923L2023.64 648.093L2023.38 648.753Z" fill="white"/>
<path d="M2020.09 657.333L2017.09 656.163C2017.01 656.122 2016.95 656.052 2016.91 655.967C2016.88 655.882 2016.88 655.788 2016.91 655.703C2016.93 655.661 2016.95 655.622 2016.98 655.589C2017.01 655.556 2017.05 655.53 2017.09 655.511C2017.13 655.492 2017.17 655.482 2017.22 655.481C2017.26 655.479 2017.31 655.487 2017.35 655.503L2020.35 656.673L2020.09 657.333Z" fill="white"/>
<path d="M2016.8 665.943L2013.8 664.773C2013.72 664.732 2013.66 664.662 2013.62 664.577C2013.59 664.492 2013.59 664.398 2013.62 664.313C2013.64 664.27 2013.66 664.232 2013.69 664.199C2013.72 664.166 2013.76 664.139 2013.8 664.121C2013.84 664.102 2013.88 664.092 2013.93 664.09C2013.97 664.089 2014.02 664.097 2014.06 664.113L2017.06 665.283L2016.8 665.943Z" fill="white"/>
<path d="M1992 691.953H2001.13V588.453H1992V691.953Z" fill="#2D24A0"/>
<path d="M1992.01 588.433H2001.14L1997.04 580.343L1996.56 579.413L1996.08 580.343L1992.01 588.433Z" fill="#FFDBB3"/>
<path d="M1996.08 580.343H1997.04L1996.56 579.413L1996.08 580.343Z" fill="#545454"/>
<path d="M1997.34 700.578L2006.38 701.856L2020.87 599.391L2011.83 598.113L1997.34 700.578Z" fill="#1165C1"/>
<path d="M2008.71 603.763L2017.76 605.013L2014.81 596.433L2014.46 595.453L2013.86 596.303L2008.71 603.763Z" fill="#FFDBB3"/>
<path d="M2013.86 596.303L2014.81 596.433L2014.46 595.453L2013.86 596.303Z" fill="#545454"/>
<path d="M1967.17 610.98L1988.25 610.954C1988.64 610.954 1988.95 610.64 1988.95 610.253L1988.94 603.833C1988.94 603.447 1988.63 603.134 1988.24 603.134L1967.16 603.16C1966.78 603.16 1966.46 603.474 1966.46 603.861L1966.47 610.281C1966.47 610.667 1966.78 610.98 1967.17 610.98Z" fill="#4D70FF"/>
<path d="M1972.57 598.373C1973.35 598.41 1974.12 598.186 1974.75 597.737C1975.39 597.288 1975.86 596.638 1976.08 595.893H1979.18C1979.4 596.637 1979.87 597.285 1980.51 597.733C1981.15 598.181 1981.91 598.402 1982.69 598.363C1989.46 598.713 1988.8 604.463 1988.8 604.463H1966.47C1966.47 604.463 1965.81 598.733 1972.57 598.373Z" fill="#2D24A0"/>
<path d="M1986.97 672.736L1968.63 672.758C1968.08 672.759 1967.55 672.542 1967.17 672.154C1966.78 671.766 1966.56 671.24 1966.56 670.691L1966.48 604.401L1988.96 604.373L1989.04 670.673C1989.04 671.221 1988.82 671.745 1988.43 672.131C1988.04 672.518 1987.52 672.735 1986.97 672.736V672.736Z" fill="#FEB80C"/>
<path d="M1979.15 593.127L1976.05 593.13L1976.05 596L1979.15 595.997L1979.15 593.127Z" fill="#FEB80C"/>
<path d="M1974.13 664.462L1981.37 664.452C1982.48 664.45 1983.37 663.553 1983.37 662.449L1983.3 610.599C1983.3 609.494 1982.4 608.6 1981.29 608.602L1974.05 608.612C1972.95 608.613 1972.06 609.51 1972.06 610.614L1972.13 662.464C1972.13 663.569 1973.03 664.463 1974.13 664.462Z" fill="#FC8510"/>
<g style="mix-blend-mode:multiply">
<path d="M1972.08 613.543L1972.15 659.403C1972.15 660.729 1972.68 662 1973.61 662.938C1974.55 663.876 1975.82 664.403 1977.15 664.403H1978C1976.67 664.403 1975.4 663.876 1974.46 662.938C1973.53 662 1973 660.729 1973 659.403L1972.95 613.543C1972.95 612.216 1973.48 610.945 1974.41 610.007C1975.35 609.069 1976.62 608.543 1977.95 608.543H1977.1C1976.44 608.54 1975.79 608.667 1975.18 608.917C1974.57 609.167 1974.02 609.535 1973.55 610C1973.09 610.464 1972.71 611.017 1972.46 611.624C1972.21 612.232 1972.08 612.884 1972.08 613.543V613.543Z" fill="#FC8510"/>
</g>
<path d="M1970.35 720.593H2020.49C2022.08 720.593 2023.62 719.986 2024.78 718.896C2025.94 717.805 2026.64 716.313 2026.74 714.723L2031.92 632.923H1958.92L1964.1 714.723C1964.2 716.314 1964.9 717.807 1966.06 718.898C1967.22 719.99 1968.76 720.596 1970.35 720.593Z" fill="#6FBBDD"/>
<path d="M1879.77 771.683H2103.56V724.273H1879.77V771.683Z" fill="#E8F1F8"/>
<path d="M1875.51 775.473H2107.96V767.913H1875.51V775.473Z" fill="#EF9F00"/>
<path d="M2096.2 737.203H1887.13" stroke="#CDCDD3" stroke-width="1.58" stroke-miterlimit="10"/>
<path d="M2096.2 747.983H1887.13" stroke="#CDCDD3" stroke-width="1.58" stroke-miterlimit="10"/>
<path d="M2096.2 758.763H1887.13" stroke="#CDCDD3" stroke-width="1.58" stroke-miterlimit="10"/>
<path d="M2107.95 720.353H1875.5V727.913H2107.95V720.353Z" fill="#EF9F00"/>
<path d="M2078.11 727.913V747.113L2084.29 741.713L2090.47 747.113V727.913H2078.11Z" fill="#C62C2C"/>
<path d="M1928.66 826.813H2152.46V779.403H1928.66V826.813Z" fill="#E8F1F8"/>
<path d="M2156.85 775.463H1924.43V783.053H2156.85V775.463Z" fill="#2D24A0"/>
<path d="M1924.42 830.593H2156.87V823.033H1924.42V830.593Z" fill="#2D24A0"/>
<path d="M2145.1 792.323H1936.03" stroke="#CDCDD3" stroke-width="1.58" stroke-miterlimit="10"/>
<path d="M2145.1 803.113H1936.03" stroke="#CDCDD3" stroke-width="1.58" stroke-miterlimit="10"/>
<path d="M2145.1 813.893H1936.03" stroke="#CDCDD3" stroke-width="1.58" stroke-miterlimit="10"/>
<path d="M1559.72 534.313C1561.57 541.624 1564.47 548.63 1568.33 555.113L1552.44 571.003L1579.86 598.423L1595.76 582.533C1602.24 586.39 1609.24 589.29 1616.55 591.143V613.623H1655.33V591.143C1662.64 589.288 1669.65 586.388 1676.13 582.533L1692.02 598.423L1719.44 571.003L1703.55 555.113C1707.41 548.63 1710.31 541.624 1712.16 534.313H1734.66V495.533H1712.16C1710.31 488.224 1707.41 481.221 1703.55 474.743L1719.44 458.843L1692.02 431.423L1676.13 447.323C1669.65 443.464 1662.64 440.561 1655.33 438.703V416.233H1616.55V438.703C1609.24 440.559 1602.24 443.462 1595.76 447.323L1579.86 431.423L1552.44 458.843L1568.33 474.743C1564.47 481.221 1561.57 488.224 1559.72 495.533H1537.24V534.313H1559.72ZM1634.72 554.083C1627.07 553.853 1619.66 551.39 1613.4 546.997C1607.13 542.605 1602.29 536.475 1599.47 529.364C1596.65 522.253 1595.97 514.472 1597.52 506.98C1599.07 499.488 1602.77 492.613 1608.18 487.202C1613.59 481.792 1620.47 478.083 1627.96 476.533C1635.45 474.983 1643.23 475.66 1650.34 478.479C1657.45 481.299 1663.59 486.139 1667.98 492.401C1672.37 498.664 1674.84 506.076 1675.07 513.723C1674.77 524.326 1670.42 534.413 1662.92 541.917C1655.43 549.42 1645.34 553.773 1634.74 554.083H1634.72Z" fill="#4FBABB"/>
<path d="M1451.26 433.593C1452.27 437.566 1453.85 441.372 1455.95 444.893L1447.31 453.533L1462.21 468.443L1470.85 459.803C1474.37 461.9 1478.18 463.476 1482.16 464.483V476.703H1503.24V464.483C1507.21 463.476 1511.02 461.9 1514.54 459.803L1523.18 468.443L1538.09 453.533L1529.45 444.893C1531.55 441.372 1533.12 437.565 1534.13 433.593H1546.35V412.503H1534.13C1533.12 408.53 1531.55 404.724 1529.45 401.203L1538.09 392.563L1523.18 377.653L1514.54 386.293C1511.02 384.195 1507.21 382.619 1503.24 381.613V369.393H1482.16V381.613C1478.18 382.619 1474.37 384.195 1470.85 386.293L1462.21 377.653L1447.31 392.563L1455.95 401.203C1453.85 404.724 1452.27 408.53 1451.26 412.503H1439.04V433.593H1451.26ZM1492.05 444.333C1487.89 444.208 1483.87 442.869 1480.46 440.482C1477.06 438.095 1474.43 434.764 1472.89 430.899C1471.36 427.034 1470.99 422.805 1471.83 418.734C1472.67 414.662 1474.69 410.925 1477.63 407.984C1480.56 405.044 1484.3 403.027 1488.37 402.184C1492.44 401.342 1496.67 401.709 1500.54 403.241C1504.4 404.773 1507.74 407.402 1510.12 410.806C1512.51 414.209 1513.85 418.237 1513.98 422.393C1513.82 428.158 1511.45 433.642 1507.38 437.722C1503.3 441.801 1497.82 444.166 1492.05 444.333V444.333Z" fill="#4FBABB"/>
<path d="M1563.98 368.993C1564.87 372.509 1566.27 375.877 1568.13 378.993L1560.47 386.653L1573.66 399.873L1581.32 392.213C1584.43 394.073 1587.8 395.471 1591.32 396.363V407.193H1610V396.363C1613.52 395.471 1616.89 394.073 1620 392.213L1627.65 399.873L1640.86 386.663L1633.21 379.003C1635.07 375.887 1636.46 372.518 1637.35 369.003H1648.18V350.313H1637.35C1636.46 346.797 1635.06 343.429 1633.21 340.313L1640.86 332.653L1627.65 319.443L1620 327.103C1616.88 325.246 1613.52 323.849 1610 322.953V312.103H1591.36V322.943C1587.84 323.839 1584.48 325.236 1581.36 327.093L1573.7 319.433L1560.49 332.643L1568.15 340.303C1566.29 343.419 1564.89 346.787 1564 350.303H1553.17V368.983L1563.98 368.993ZM1600.12 378.513C1596.44 378.402 1592.86 377.215 1589.85 375.098C1586.83 372.982 1584.5 370.029 1583.14 366.603C1581.78 363.177 1581.45 359.428 1582.2 355.818C1582.95 352.209 1584.73 348.897 1587.34 346.291C1589.94 343.685 1593.26 341.898 1596.87 341.152C1600.48 340.406 1604.22 340.732 1607.65 342.091C1611.08 343.45 1614.03 345.783 1616.15 348.8C1618.26 351.818 1619.45 355.389 1619.56 359.073C1619.42 364.184 1617.33 369.047 1613.71 372.662C1610.09 376.278 1605.23 378.371 1600.12 378.513V378.513Z" fill="#4FBABB"/>
<path d="M1493.38 326.273C1493.82 328.031 1494.52 329.716 1495.45 331.273L1491.62 335.103L1498.23 341.703L1502.06 337.883C1503.62 338.813 1505.3 339.51 1507.06 339.953V345.363H1516.4V339.943C1518.16 339.497 1519.84 338.799 1521.4 337.873L1525.22 341.693L1531.83 335.093L1528 331.263C1528.93 329.706 1529.63 328.021 1530.07 326.263H1535.49V316.943H1530.07C1529.62 315.185 1528.93 313.501 1528 311.943L1531.83 308.123L1525.22 301.513L1521.4 305.343C1519.84 304.416 1518.16 303.718 1516.4 303.273V297.853H1507.06V303.273C1505.3 303.715 1503.62 304.412 1502.06 305.343L1498.23 301.513L1491.62 308.123L1495.45 311.943C1494.52 313.501 1493.83 315.185 1493.38 316.943H1487.96V326.283L1493.38 326.273ZM1511.45 331.033C1509.61 330.977 1507.82 330.384 1506.31 329.325C1504.8 328.267 1503.64 326.791 1502.96 325.078C1502.28 323.365 1502.12 321.49 1502.49 319.686C1502.86 317.881 1503.76 316.225 1505.06 314.922C1506.36 313.619 1508.02 312.725 1509.82 312.352C1511.63 311.979 1513.5 312.142 1515.21 312.822C1516.93 313.501 1518.4 314.668 1519.46 316.176C1520.52 317.685 1521.11 319.471 1521.17 321.313C1521.1 323.868 1520.05 326.3 1518.24 328.107C1516.44 329.915 1514.01 330.962 1511.45 331.033Z" fill="#4FBABB"/>
<path d="M1493.29 568.383C1506.27 568.383 1516.8 557.857 1516.8 544.873C1516.8 531.889 1506.27 521.363 1493.29 521.363C1480.31 521.363 1469.78 531.889 1469.78 544.873C1469.78 557.857 1480.31 568.383 1493.29 568.383Z" fill="#4FBABB"/>
<path d="M1684.66 327.663C1682.1 327.665 1679.6 326.908 1677.48 325.49C1675.35 324.071 1673.69 322.053 1672.72 319.692C1671.74 317.33 1671.48 314.732 1671.98 312.225C1672.48 309.717 1673.71 307.414 1675.51 305.607C1677.32 303.799 1679.62 302.569 1682.13 302.071C1684.64 301.572 1687.24 301.829 1689.6 302.808C1691.96 303.787 1693.98 305.445 1695.4 307.571C1696.82 309.697 1697.57 312.197 1697.57 314.753C1697.56 318.175 1696.2 321.456 1693.78 323.876C1691.36 326.296 1688.08 327.657 1684.66 327.663V327.663ZM1684.66 308.573C1683.44 308.571 1682.24 308.932 1681.22 309.609C1680.21 310.287 1679.41 311.252 1678.94 312.381C1678.47 313.51 1678.35 314.753 1678.59 315.952C1678.82 317.152 1679.41 318.254 1680.28 319.119C1681.14 319.984 1682.24 320.574 1683.44 320.813C1684.64 321.053 1685.88 320.931 1687.01 320.463C1688.14 319.996 1689.11 319.204 1689.79 318.187C1690.47 317.171 1690.83 315.975 1690.83 314.753C1690.83 313.115 1690.18 311.545 1689.02 310.386C1687.87 309.228 1686.3 308.575 1684.66 308.573V308.573Z" fill="#4FBABB"/>
<path opacity="0.68" d="M1555.38 229.573L1574 273.333C1574.24 273.91 1574.6 274.434 1575.05 274.874C1575.49 275.314 1576.02 275.661 1576.61 275.896C1577.19 276.131 1577.81 276.249 1578.44 276.243C1579.06 276.237 1579.68 276.108 1580.26 275.863L1664.55 239.943C1665.13 239.698 1665.65 239.342 1666.09 238.895C1666.53 238.448 1666.88 237.919 1667.11 237.337C1667.35 236.756 1667.47 236.134 1667.46 235.507C1667.45 234.88 1667.33 234.26 1667.08 233.683L1648.45 189.943C1648.21 189.365 1647.85 188.842 1647.4 188.402C1646.96 187.963 1646.43 187.616 1645.84 187.382C1645.26 187.148 1644.64 187.031 1644.01 187.038C1643.39 187.045 1642.77 187.176 1642.19 187.423L1557.9 223.293C1556.81 223.764 1555.93 224.618 1555.43 225.693C1555.15 226.3 1555 226.959 1555 227.627C1554.99 228.296 1555.12 228.958 1555.38 229.573V229.573Z" fill="#4FBABB"/>
<path d="M1555.43 225.713L1603.08 238.943C1606.7 239.93 1610.54 239.668 1613.99 238.197C1617.44 236.727 1620.29 234.136 1622.08 230.843L1645.66 187.323C1644.54 186.938 1643.31 186.981 1642.22 187.443L1557.93 223.313C1556.83 223.778 1555.94 224.633 1555.43 225.713V225.713Z" fill="#98EEEF"/>
<path d="M1686.15 419.583H1681.81V423.943C1681.81 424.884 1681.44 425.787 1680.77 426.453C1680.1 427.119 1679.2 427.493 1678.26 427.493C1677.32 427.493 1676.42 427.119 1675.75 426.453C1675.08 425.787 1674.71 424.884 1674.71 423.943V419.593H1670.36C1669.42 419.593 1668.52 419.219 1667.85 418.553C1667.18 417.887 1666.81 416.984 1666.81 416.043C1666.81 415.101 1667.18 414.198 1667.85 413.533C1668.52 412.867 1669.42 412.493 1670.36 412.493H1674.71V408.143C1674.71 407.201 1675.08 406.298 1675.75 405.633C1676.42 404.967 1677.32 404.593 1678.26 404.593C1679.2 404.593 1680.1 404.967 1680.77 405.633C1681.44 406.298 1681.81 407.201 1681.81 408.143V412.483H1686.15C1687.09 412.483 1687.99 412.857 1688.66 413.523C1689.33 414.188 1689.7 415.091 1689.7 416.033C1689.7 416.974 1689.33 417.877 1688.66 418.543C1687.99 419.209 1687.09 419.583 1686.15 419.583V419.583Z" fill="#4FBABB"/>
<path d="M1507.79 887.803C1496.16 887.803 1484.79 884.354 1475.12 877.891C1465.45 871.429 1457.91 862.244 1453.46 851.498C1449.01 840.752 1447.84 828.927 1450.11 817.519C1452.38 806.111 1457.98 795.632 1466.21 787.408C1474.43 779.183 1484.91 773.582 1496.32 771.313C1507.72 769.043 1519.55 770.208 1530.3 774.659C1541.04 779.111 1550.23 786.648 1556.69 796.32C1563.15 805.991 1566.6 817.361 1566.6 828.993C1566.59 844.586 1560.39 859.537 1549.36 870.563C1538.33 881.589 1523.38 887.789 1507.79 887.803V887.803ZM1507.79 793.803C1500.82 793.805 1494.02 795.872 1488.23 799.743C1482.43 803.614 1477.92 809.116 1475.26 815.551C1472.59 821.987 1471.9 829.069 1473.26 835.9C1474.62 842.731 1477.97 849.006 1482.9 853.931C1487.83 858.855 1494.1 862.208 1500.93 863.567C1507.76 864.925 1514.85 864.227 1521.28 861.561C1527.72 858.895 1533.22 854.38 1537.09 848.589C1540.95 842.797 1543.02 835.988 1543.02 829.023C1543.02 819.677 1539.31 810.714 1532.7 804.104C1526.1 797.494 1517.14 793.778 1507.79 793.773V793.803Z" fill="#E6FFFE"/>
<path d="M1463.19 709.303C1462.74 709.303 1462.32 709.126 1462 708.811C1461.69 708.495 1461.51 708.068 1461.51 707.623C1461.5 690.424 1463.37 673.276 1467.08 656.483C1472.09 633.891 1480.42 612.168 1491.81 592.023C1491.91 591.819 1492.06 591.637 1492.23 591.49C1492.41 591.343 1492.61 591.233 1492.83 591.166C1493.05 591.1 1493.28 591.079 1493.5 591.104C1493.73 591.129 1493.95 591.199 1494.15 591.312C1494.35 591.424 1494.52 591.576 1494.66 591.758C1494.8 591.939 1494.9 592.147 1494.96 592.369C1495.01 592.59 1495.02 592.821 1494.99 593.047C1494.95 593.273 1494.87 593.489 1494.75 593.683C1483.52 613.534 1475.3 634.945 1470.37 657.213C1466.72 673.767 1464.88 690.67 1464.88 707.623C1464.88 707.844 1464.84 708.063 1464.75 708.268C1464.67 708.472 1464.54 708.658 1464.38 708.814C1464.23 708.97 1464.04 709.094 1463.84 709.178C1463.63 709.261 1463.41 709.304 1463.19 709.303Z" fill="#4FBABB"/>
<path d="M1470.9 769.033C1470.53 769.032 1470.17 768.91 1469.87 768.684C1469.58 768.458 1469.37 768.141 1469.27 767.783C1467.5 761.063 1466 754.163 1464.83 747.283C1464.79 747.061 1464.79 746.832 1464.83 746.611C1464.88 746.389 1464.96 746.178 1465.09 745.992C1465.22 745.805 1465.38 745.646 1465.57 745.524C1465.77 745.402 1465.98 745.319 1466.2 745.281C1466.42 745.243 1466.65 745.25 1466.87 745.302C1467.09 745.353 1467.3 745.449 1467.48 745.582C1467.67 745.716 1467.82 745.885 1467.94 746.079C1468.05 746.273 1468.13 746.489 1468.16 746.713C1469.31 753.503 1470.78 760.303 1472.53 766.923C1472.64 767.355 1472.58 767.814 1472.36 768.2C1472.13 768.586 1471.76 768.868 1471.33 768.983C1471.19 769.018 1471.04 769.035 1470.9 769.033V769.033Z" fill="#4FBABB"/>
<path d="M1914.98 707.623C1914.98 828.103 1817.32 925.763 1696.84 925.763C1576.36 925.763 1478.66 828.103 1478.66 707.623C1478.66 587.143 1576.32 489.483 1696.8 489.483C1817.28 489.483 1914.98 587.143 1914.98 707.623Z" fill="#378280"/>
<path d="M1893.76 707.613C1893.75 747.729 1881.5 786.888 1858.64 819.855C1835.78 852.822 1803.41 878.027 1765.84 892.103C1758.12 895.021 1750.21 897.426 1742.17 899.303C1697.21 909.876 1649.97 904.318 1608.69 883.6C1567.42 862.883 1534.73 828.322 1516.35 785.955C1497.97 743.588 1495.05 696.109 1508.11 651.811C1521.18 607.514 1549.39 569.214 1587.82 543.603C1594.68 539.012 1601.84 534.873 1609.24 531.213C1625.48 523.115 1642.78 517.326 1660.62 514.013C1672.57 511.797 1684.7 510.686 1696.85 510.693C1805.6 510.693 1893.76 598.863 1893.76 707.613Z" fill="#B5B5B5"/>
<path d="M1888.66 707.613C1888.65 746.683 1876.71 784.82 1854.45 816.927C1832.19 849.035 1800.66 873.583 1764.07 887.293C1756.55 890.129 1748.85 892.467 1741.02 894.293C1705.73 902.619 1668.81 900.777 1634.52 888.981C1600.24 877.185 1570 855.917 1547.31 827.64C1524.61 799.364 1510.4 765.237 1506.3 729.213C1502.21 693.188 1508.4 656.741 1524.17 624.093C1539.15 593.218 1562.1 566.907 1590.66 547.883C1597.35 543.412 1604.31 539.381 1611.52 535.813C1627.33 527.932 1644.16 522.295 1661.52 519.063C1673.16 516.908 1684.97 515.827 1696.81 515.833C1802.76 515.833 1888.66 601.693 1888.66 707.613Z" fill="#D9FFFE"/>
<path d="M1740.99 894.303C1707.57 902.155 1672.66 900.957 1639.86 890.833L1524.14 624.103C1539.12 593.221 1562.09 566.906 1590.66 547.883L1740.99 894.303Z" fill="white"/>
<path d="M1810.45 862.153C1796.22 872.644 1780.6 881.105 1764.04 887.293L1611.52 535.813C1627.33 527.933 1644.16 522.295 1661.52 519.063L1810.45 862.153Z" fill="white"/>
<path d="M1696.85 717.733C1694.59 717.737 1692.39 716.981 1690.6 715.586C1688.82 714.192 1687.56 712.24 1687.02 710.042C1686.48 707.844 1686.69 705.529 1687.62 703.466C1688.55 701.402 1690.14 699.711 1692.15 698.663L1795.15 644.803C1797.53 643.56 1800.3 643.313 1802.86 644.114C1805.42 644.916 1807.55 646.701 1808.79 649.078C1810.04 651.454 1810.29 654.227 1809.48 656.786C1808.68 659.345 1806.9 661.48 1804.52 662.723L1701.52 716.583C1700.08 717.337 1698.48 717.731 1696.85 717.733Z" fill="#ED9558"/>
<path d="M1736.21 707.623C1736.21 715.409 1733.9 723.021 1729.57 729.495C1725.25 735.97 1719.1 741.016 1711.91 743.996C1704.71 746.976 1696.8 747.755 1689.16 746.236C1681.52 744.717 1674.51 740.967 1669 735.461C1663.5 729.955 1659.75 722.94 1658.23 715.303C1656.71 707.666 1657.49 699.75 1660.47 692.556C1663.45 685.363 1668.49 679.214 1674.97 674.888C1681.44 670.562 1689.05 668.253 1696.84 668.253C1707.28 668.253 1717.3 672.401 1724.68 679.784C1732.06 687.167 1736.21 697.181 1736.21 707.623V707.623Z" fill="#6F7475"/>
<path d="M1696.85 717.733C1695.12 717.735 1693.42 717.295 1691.92 716.454C1690.41 715.614 1689.14 714.402 1688.23 712.933L1607.13 581.563C1606.43 580.433 1605.96 579.176 1605.75 577.865C1605.54 576.555 1605.59 575.215 1605.9 573.923C1606.51 571.313 1608.14 569.056 1610.43 567.648C1612.71 566.239 1615.46 565.795 1618.06 566.413C1620.67 567.031 1622.93 568.66 1624.34 570.943L1705.44 702.313C1706.38 703.843 1706.9 705.598 1706.94 707.397C1706.98 709.195 1706.54 710.971 1705.67 712.543C1704.79 714.114 1703.51 715.423 1701.96 716.336C1700.41 717.248 1698.65 717.73 1696.85 717.733V717.733Z" fill="#6F7475"/>
<g style="mix-blend-mode:multiply">
<path d="M1914.98 707.613C1915 741.776 1906.99 775.467 1891.6 805.965C1876.2 836.463 1853.85 862.914 1826.35 883.183L1729.35 501.183C1728.57 498.1 1728.17 494.933 1728.17 491.753C1833.77 506.873 1914.98 597.753 1914.98 707.613Z" fill="#C8CDCE"/>
</g>
<path d="M1605.92 936.323H1787.74C1788.43 936.324 1789.12 936.188 1789.76 935.924C1790.41 935.659 1790.99 935.27 1791.48 934.78C1791.97 934.289 1792.36 933.707 1792.63 933.066C1792.89 932.424 1793.03 931.737 1793.03 931.043C1793.03 929.641 1792.47 928.298 1791.48 927.309C1790.49 926.319 1789.14 925.763 1787.74 925.763H1605.92C1604.52 925.763 1603.18 926.319 1602.19 927.309C1601.2 928.299 1600.64 929.642 1600.64 931.043V931.043C1600.64 931.736 1600.77 932.424 1601.04 933.065C1601.3 933.706 1601.69 934.289 1602.18 934.779C1602.67 935.27 1603.26 935.659 1603.9 935.923C1604.54 936.188 1605.23 936.324 1605.92 936.323V936.323Z" fill="#E2E2E2"/>
<path d="M1861.66 944.193H1958.19C1959.59 944.193 1960.93 943.637 1961.92 942.646C1962.91 941.656 1963.47 940.313 1963.47 938.913C1963.47 938.219 1963.34 937.532 1963.07 936.891C1962.81 936.25 1962.42 935.667 1961.93 935.176C1961.44 934.686 1960.85 934.297 1960.21 934.032C1959.57 933.767 1958.88 933.632 1958.19 933.633H1861.66C1860.97 933.632 1860.28 933.767 1859.64 934.032C1859 934.297 1858.41 934.686 1857.92 935.176C1857.43 935.667 1857.04 936.25 1856.78 936.891C1856.51 937.532 1856.38 938.219 1856.38 938.913V938.913C1856.38 940.313 1856.94 941.656 1857.93 942.646C1858.92 943.637 1860.26 944.193 1861.66 944.193V944.193Z" fill="#E2E2E2"/>
<path d="M1893.51 921.743L1889.02 893.793L1901.59 889.993L1903.59 919.613L1893.51 921.743Z" fill="#D6DDEA"/>
<path d="M1904.07 916.623C1904.9 916.742 1905.69 917.088 1906.34 917.623C1910.79 921.313 1924.34 927.923 1931.25 928.923C1938.68 929.993 1939.07 933.683 1928.6 933.683C1918.13 933.683 1910.46 932.743 1905.79 932.863C1901.12 932.983 1902.34 933.683 1890.87 933.683C1882.06 933.683 1884.87 922.443 1887.96 917.223C1888.33 916.458 1888.93 915.83 1889.68 915.431C1890.43 915.032 1891.29 914.882 1892.13 915.003L1904.07 916.623Z" fill="#ED9558"/>
<path d="M1853.04 895.693L1870.59 873.473L1881.89 880.163L1861.42 901.663L1853.04 895.693Z" fill="#D6DDEA"/>
<path d="M1863.95 899.993C1864.44 900.675 1864.72 901.478 1864.78 902.313C1865.07 908.083 1869.54 922.833 1874.72 927.563C1880.06 932.443 1876.61 933.633 1868.01 929.563C1858.55 925.103 1856.43 915.563 1853.19 912.213C1849.95 908.863 1850.25 910.213 1842.49 901.773C1836.54 895.283 1846.67 889.723 1852.65 888.513C1853.46 888.258 1854.33 888.272 1855.13 888.553C1855.94 888.835 1856.63 889.367 1857.1 890.073L1863.95 899.993Z" fill="#ED9558"/>
<path d="M1845.29 424.403C1845.29 424.403 1841.85 447.293 1848.49 457.813C1855.13 468.333 1856.08 469.943 1856.08 469.943" fill="#ED8C62"/>
<path d="M1862.15 480.183C1860.31 481.261 1858.22 481.83 1856.09 481.833C1854.03 481.837 1852 481.304 1850.21 480.287C1848.42 479.27 1846.92 477.804 1845.87 476.033C1845.74 475.863 1844.56 473.873 1838.43 464.173C1834.11 457.333 1832.73 447.993 1832.53 439.803C1832.36 434.058 1832.7 428.309 1833.53 422.623C1834.06 419.553 1835.77 416.813 1838.29 414.989C1840.82 413.165 1843.96 412.403 1847.04 412.866C1850.12 413.329 1852.89 414.98 1854.77 417.466C1856.65 419.951 1857.48 423.073 1857.08 426.163C1856.56 429.857 1856.31 433.583 1856.31 437.313C1856.25 440.772 1856.55 444.228 1857.22 447.623C1857.44 448.97 1857.9 450.269 1858.56 451.463C1865.34 462.213 1866.32 463.863 1866.32 463.863C1867.12 465.208 1867.65 466.697 1867.87 468.246C1868.09 469.794 1868.01 471.372 1867.62 472.887C1867.23 474.403 1866.55 475.828 1865.61 477.08C1864.67 478.331 1863.5 479.386 1862.15 480.183V480.183Z" fill="#FFAF84"/>
<path d="M1818.21 611.163C1820.7 577.033 1809.21 492.163 1803.31 458.443C1803.11 457.239 1803.17 456.006 1803.49 454.828C1803.81 453.65 1804.38 452.556 1805.17 451.622C1805.95 450.689 1806.93 449.937 1808.04 449.421C1809.14 448.905 1810.35 448.636 1811.57 448.633H1881.73C1883.57 448.633 1885.36 449.241 1886.83 450.361C1888.29 451.482 1889.34 453.054 1889.82 454.833C1897.82 485.473 1902.96 611.163 1902.96 611.163H1818.21Z" fill="#E8E8E8"/>
<path d="M1934.13 540.023C1932.95 533.653 1925.13 517.213 1916.34 500.023C1907.01 481.793 1896.59 462.723 1891.77 454.023C1890.44 451.761 1888.28 450.107 1885.75 449.414C1883.22 448.722 1880.51 449.045 1878.22 450.314C1875.92 451.584 1874.21 453.7 1873.45 456.212C1872.69 458.724 1872.94 461.433 1874.15 463.763C1881.56 477.143 1889.21 491.393 1895.82 504.133C1903.37 518.653 1910.72 527.653 1913.68 534.793C1908.21 539.563 1894.68 539.873 1883.95 539.233C1880.95 538.883 1869.58 538.073 1861.95 545.063C1858.95 547.783 1855.51 552.713 1855.86 560.653C1856.11 566.063 1856.86 568.293 1861.71 570.653C1863.83 571.571 1866.16 571.9 1868.45 571.603C1873.97 570.923 1874.45 567.913 1874.45 561.433C1874.63 558.238 1875.44 555.109 1876.82 552.223C1876.82 552.223 1893.1 556.223 1906.73 557.913C1920.36 559.603 1925.84 556.913 1930.83 551.333C1932.21 549.827 1933.23 548.024 1933.8 546.062C1934.37 544.101 1934.48 542.035 1934.13 540.023V540.023Z" fill="#FFAF84"/>
<path d="M1821.9 666.323C1821.9 666.323 1811.58 647.403 1818.22 611.163H1902.95C1902.95 611.163 1904.16 638.743 1902.21 666.323H1821.9Z" fill="#3962A8"/>
<path d="M1916.34 500.023L1906.47 502.023L1895.82 504.183C1889.21 491.443 1881.56 477.183 1874.15 463.813C1872.94 461.483 1872.69 458.774 1873.45 456.262C1874.21 453.75 1875.92 451.634 1878.22 450.364C1880.51 449.095 1883.22 448.772 1885.75 449.465C1888.28 450.157 1890.44 451.811 1891.77 454.073C1896.59 462.723 1907.01 481.793 1916.34 500.023Z" fill="#ED8C62"/>
<path d="M1820.9 456.523C1820.59 455.235 1820.03 454.022 1819.24 452.954C1818.46 451.886 1817.48 450.983 1816.34 450.3C1815.21 449.616 1813.95 449.164 1812.64 448.971C1811.33 448.777 1809.99 448.846 1808.71 449.173C1784.41 455.173 1767.52 460.663 1755.71 465.583C1728.71 476.973 1728.92 485.403 1729.02 489.753C1729.16 494.663 1730.11 504.173 1788.43 525.423C1788.43 527.093 1786.58 533.773 1785.43 535.923C1782.78 540.813 1785.54 545.503 1788.43 550.243C1789.07 551.29 1789.96 552.164 1791.01 552.789C1792.07 553.413 1793.26 553.768 1794.49 553.823C1798.07 553.823 1802.49 549.293 1803.13 545.513C1805.34 531.923 1804.96 523.933 1804.29 522.333C1804.23 522.193 1804.14 522.073 1804.07 521.943C1803.86 521.481 1803.62 521.036 1803.34 520.613C1803.16 520.365 1802.96 520.128 1802.75 519.903C1802.55 519.626 1802.33 519.362 1802.09 519.113C1801.7 518.747 1801.27 518.413 1800.83 518.113C1800.76 518.063 1800.7 517.993 1800.62 517.943C1799.93 517.481 1799.19 517.105 1798.41 516.823C1778.68 508.703 1760.23 495.573 1752.14 489.743C1755.96 487.66 1759.91 485.827 1763.97 484.253C1776.47 479.253 1794.77 473.433 1813.5 468.823C1814.8 468.507 1816.02 467.937 1817.09 467.146C1818.17 466.356 1819.08 465.36 1819.77 464.216C1820.45 463.072 1820.91 461.803 1821.1 460.483C1821.3 459.162 1821.23 457.816 1820.9 456.523Z" fill="#FFAF84"/>
<path d="M1917.92 495.643L1904.41 498.243L1893.8 500.243L1884.8 501.963C1873.24 479.283 1870.47 474.093 1870.04 466.343C1869.57 457.583 1871.92 453.233 1877.62 450.103C1880.35 448.594 1883.57 448.229 1886.57 449.088C1889.56 449.946 1892.1 451.958 1893.62 454.683C1902.56 467.82 1910.68 481.499 1917.92 495.643V495.643Z" fill="#E8E8E8"/>
<path d="M1954.82 778.443C1953.58 786.773 1949.06 795.703 1942.76 806.723C1932.18 825.083 1916 845.403 1901.48 862.493C1891.37 874.383 1882.1 884.703 1876.14 891.713C1873.54 894.713 1871.59 897.103 1870.41 898.713L1858.41 883.213C1862.85 876.943 1867 868.483 1872.19 860.593L1872.59 859.993C1882.36 845.263 1892.71 828.653 1901.1 813.553C1901.42 813.065 1901.71 812.561 1901.98 812.043C1910.84 796.043 1917.41 781.913 1918.66 773.623C1920.88 758.833 1898.81 712.793 1876.97 672.193C1874.48 667.533 1871.97 662.953 1869.53 658.503C1868.69 656.992 1868.2 655.309 1868.11 653.583C1867.47 646.103 1872.96 637.513 1879.63 633.833C1887.82 629.323 1898.41 627.003 1902.92 635.183C1912.19 651.943 1960.28 742.253 1954.82 778.443Z" fill="#3962A8"/>
<path d="M1901.48 862.493C1891.37 874.383 1882.1 884.703 1876.14 891.713C1875.14 883.423 1874.14 874.423 1873.14 865.323C1872.94 863.573 1872.77 861.813 1872.6 860.033C1882.37 845.303 1892.72 828.693 1901.11 813.593C1901.51 828.523 1901.55 845.943 1901.48 862.493Z" fill="#2D548C"/>
<path d="M1899.29 782.993C1895.14 749.093 1866.67 657.993 1862.29 647.993C1858.54 639.433 1837.99 637.603 1829.39 641.383C1827.35 642.275 1825.51 643.56 1823.97 645.165C1822.43 646.77 1821.22 648.662 1820.42 650.735C1819.61 652.807 1819.22 655.018 1819.27 657.242C1819.32 659.465 1819.8 661.657 1820.7 663.693C1832.12 689.693 1864.63 759.313 1867.87 783.943C1869.76 798.673 1872.29 828.273 1876.94 853.513C1880.21 871.133 1883.48 888.293 1885.94 900.763C1888.02 911.573 1888.03 909.593 1888.24 910.673L1908.55 907.573C1908.55 907.573 1904.18 822.943 1899.29 782.993Z" fill="#3962A8"/>
<path d="M1813.52 468.723C1794.79 473.333 1776.52 479.133 1763.99 484.153L1755.76 465.583C1767.52 460.663 1784.41 455.143 1808.76 449.173C1810.06 448.817 1811.41 448.725 1812.74 448.902C1814.08 449.078 1815.36 449.52 1816.52 450.201C1817.68 450.882 1818.69 451.788 1819.5 452.866C1820.3 453.945 1820.88 455.173 1821.2 456.479C1821.52 457.784 1821.58 459.141 1821.37 460.469C1821.16 461.797 1820.68 463.069 1819.97 464.211C1819.26 465.352 1818.32 466.339 1817.23 467.114C1816.13 467.889 1814.88 468.436 1813.57 468.723H1813.52Z" fill="#ED8C62"/>
<path d="M1808.86 448.943C1815.31 448.003 1819.96 451.063 1821.69 457.343C1823.42 463.623 1819.08 468.553 1813.46 471.853C1806.55 475.913 1804.22 476.673 1775.14 486.683L1758.97 464.253C1796.15 449.833 1798.06 450.453 1808.86 448.943Z" fill="#E8E8E8"/>
<path d="M1857.2 447.623C1856.66 447.623 1856.12 447.623 1855.58 447.623C1847.24 447.629 1839.13 444.864 1832.53 439.763C1832.36 434.018 1832.7 428.269 1833.53 422.583C1834.06 419.513 1835.77 416.773 1838.29 414.949C1840.82 413.125 1843.96 412.363 1847.04 412.826C1850.12 413.289 1852.89 414.94 1854.77 417.426C1856.65 419.911 1857.48 423.033 1857.08 426.123C1856.56 429.817 1856.31 433.542 1856.31 437.273C1856.24 440.744 1856.54 444.214 1857.2 447.623V447.623Z" fill="#ED8C62"/>
<path d="M1866.53 448.633C1866.53 453.723 1864.53 462.313 1851.1 462.313C1841.33 462.313 1829.1 458.173 1824.54 450.313L1823.54 448.623L1866.53 448.633Z" fill="#C8D6DB"/>
<path d="M1827.47 448.633C1831.05 454.863 1841.79 458.943 1851.09 458.943C1860.39 458.943 1863.15 454.323 1863.15 448.633H1827.47Z" fill="#FFAF84"/>
<path d="M1878.42 554.353C1878.42 554.243 1878.93 548.523 1873.03 540.163L1878.54 536.893C1885.54 547.263 1884.83 554.773 1884.83 555.263L1878.42 554.353Z" fill="#82AACE"/>
<path d="M1874.06 536.943C1877.23 535.483 1881.42 536.163 1883.43 538.473C1885.44 540.783 1884.5 543.853 1881.34 545.323C1878.18 546.793 1873.98 546.103 1871.97 543.793C1869.96 541.483 1870.9 538.453 1874.06 536.943Z" fill="#4E7CAF"/>
<path d="M1888.66 376.333C1889.01 376.393 1888.34 378.333 1890.3 382.113C1892.26 385.893 1890.93 392.353 1890.89 392.113C1890.85 391.873 1899.77 378.573 1899.11 374.623C1898.45 370.673 1895.51 368.993 1894.43 369.963C1893.35 370.933 1888.66 376.333 1888.66 376.333Z" fill="#424344"/>
<path d="M1821.21 385.683C1819.95 389.041 1819.02 392.514 1818.43 396.053C1818.38 396.444 1818.35 396.838 1818.35 397.233C1818.32 397.629 1818.32 398.027 1818.35 398.423C1818.46 410.953 1829.35 431.243 1839.51 435.153C1840.82 435.601 1842.15 435.959 1843.51 436.223C1858.29 439.113 1869.75 429.223 1877.8 417.673C1878.08 417.243 1878.35 416.863 1878.62 416.463C1884.04 408.107 1888.41 399.112 1891.62 389.683C1891.95 388.683 1892.11 388.133 1892.11 388.133C1893.52 385.038 1894.2 381.662 1894.11 378.263C1894.11 377.713 1894.05 377.423 1894.05 377.423L1893.59 377.163C1889.84 374.923 1864.33 359.773 1863.75 359.573C1863.17 359.373 1834.91 354.623 1834.91 354.623C1834.91 354.623 1825.98 372.163 1821.21 385.683Z" fill="#FFAF84"/>
<path d="M1817.46 384.073C1816.2 387.433 1815.27 390.91 1814.69 394.453C1814.63 394.843 1814.6 395.238 1814.6 395.633C1813.6 407.893 1823.6 429.753 1839.48 435.153C1840.64 435.615 1841.83 436.019 1843.03 436.363C1860.43 441.363 1869.76 429.593 1877.81 417.673C1878.09 417.243 1878.36 416.863 1878.63 416.463C1878.63 416.463 1870.14 424.733 1867.03 424.293C1863.92 423.853 1868.62 420.953 1861.13 415.703C1856.35 412.363 1848.33 410.603 1844.48 410.163C1840.93 409.773 1834.33 410.033 1832.06 409.813C1831.62 409.782 1831.2 409.637 1830.83 409.393C1828.28 407.183 1824.83 395.883 1825.3 389.343C1825.48 386.783 1819.85 384.233 1817.46 384.073Z" fill="#424344"/>
<path d="M1910.07 366.093C1910.07 366.093 1904.01 387.093 1871.28 370.093C1838.55 353.093 1832.79 388.393 1832.79 388.393C1832.79 388.393 1830.79 375.623 1828.26 379.733C1825.73 383.843 1824.49 395.733 1824.49 395.733C1824.49 395.733 1814.69 394.443 1815.54 389.673C1816.05 386.823 1825.49 346.673 1834.7 338.823C1843.91 330.973 1852.03 333.413 1852.03 333.413C1852.03 333.413 1862.52 328.193 1881.58 339.193C1900.64 350.193 1913.29 345.253 1913.09 345.823C1912.89 346.393 1914.76 353.163 1910.07 366.093Z" fill="#424344"/>
</svg>
