<svg width="437" height="303" viewBox="0 0 437 303" fill="none" xmlns="http://www.w3.org/2000/svg">
<path d="M90.4388 126.15L92.5088 119.84L88.3288 117C88.3882 115.785 88.311 114.568 88.0988 113.37L91.8888 109.89L88.8888 103.97L83.8888 104.97C83.0818 104.012 82.1769 103.14 81.1888 102.37L81.4588 97L75.1588 94.92L72.1588 99.4C70.9254 99.3951 69.6951 99.5225 68.4888 99.78L65.0288 96L59.0988 99L60.0988 104.06C59.1751 104.88 58.3435 105.799 57.6188 106.8L52.3888 106.57L50.3088 112.88L54.6588 115.8C54.6311 117.028 54.735 118.255 54.9688 119.46L51.1588 123L54.1588 128.93L59.1588 127.93C60.0327 128.763 60.9951 129.497 62.0288 130.12L61.8888 135.06L68.1988 137.14L71.0188 133.14C72.2248 133.214 73.4352 133.157 74.6288 132.97L78.0988 136.8L84.0188 133.8L83.0188 128.8C83.8858 127.957 84.6572 127.022 85.3188 126.01L90.4388 126.15ZM68.9588 124.27C67.4073 123.759 66.0419 122.8 65.0354 121.514C64.0289 120.227 63.4264 118.671 63.304 117.043C63.1817 115.414 63.545 113.785 64.3481 112.363C65.1511 110.941 66.3579 109.788 67.8158 109.052C69.2736 108.315 70.9172 108.027 72.5386 108.224C74.1601 108.422 75.6866 109.095 76.9253 110.16C78.164 111.225 79.0591 112.633 79.4976 114.206C79.9361 115.78 79.8983 117.448 79.3888 119C79.0527 120.033 78.5157 120.989 77.8087 121.813C77.1018 122.637 76.2389 123.314 75.2696 123.804C74.3003 124.293 73.2438 124.587 72.1608 124.667C71.0777 124.747 69.9896 124.612 68.9588 124.27Z" fill="#5CEEEF"/>
<path d="M433.129 87.28L436.469 77.16L429.759 72.56C429.842 70.609 429.718 68.6548 429.389 66.73L435.469 61.15L430.689 51.65L422.599 53.19C421.314 51.6422 419.865 50.2374 418.279 49L418.729 40.39L408.609 37.06L403.849 44.25C401.866 44.2385 399.888 44.4397 397.949 44.85L392.329 38.85L382.799 43.69L384.339 51.81C382.849 53.1265 381.508 54.602 380.339 56.21L371.939 55.85L368.629 66L375.629 70.68C375.584 72.649 375.751 74.6171 376.129 76.55L370.129 82.16L374.949 91.68L383.029 90.16C384.413 91.4892 385.939 92.6628 387.579 93.66L387.369 101.58L397.489 104.92L402.029 98.41C403.963 98.5345 405.904 98.4473 407.819 98.15L413.379 104.28L422.879 99.53L421.329 91.45C422.723 90.1078 423.964 88.6154 425.029 87L433.129 87.28ZM398.669 84.28C396.177 83.4612 393.983 81.9215 392.366 79.8556C390.749 77.7898 389.781 75.2908 389.585 72.6747C389.388 70.0586 389.973 67.4431 391.263 65.1591C392.554 62.8751 394.493 61.0252 396.835 59.8436C399.177 58.662 401.817 58.2017 404.421 58.521C407.025 58.8403 409.476 59.9248 411.463 61.6373C413.451 63.3498 414.885 65.6134 415.586 68.1415C416.287 70.6697 416.221 73.3489 415.399 75.84C414.295 79.1743 411.914 81.9346 408.777 83.515C405.641 85.0955 402.005 85.367 398.669 84.27V84.28Z" fill="#00BABB"/>
<path d="M352.729 229.53L354.639 223.75L350.799 221.12C350.855 220.009 350.785 218.895 350.589 217.8L354.069 214.61L351.339 209.18L346.719 210.06C345.981 209.182 345.153 208.385 344.249 207.68L344.499 202.76L338.719 200.86L336.029 205C334.893 204.991 333.759 205.108 332.649 205.35L329.439 201.94L324.029 204.67L324.909 209.3C324.065 210.057 323.304 210.902 322.639 211.82L317.839 211.61L315.939 217.39L319.939 220.07C319.92 221.194 320.017 222.316 320.229 223.42L316.789 226.62L319.539 232.06L324.169 231.18C324.964 231.94 325.839 232.61 326.779 233.18L326.649 237.71L332.429 239.62L335.019 235.9C336.124 235.971 337.234 235.921 338.329 235.75L341.509 239.26L346.929 236.54L346.049 231.93C346.843 231.155 347.55 230.297 348.159 229.37L352.729 229.53ZM333.029 227.81C331.606 227.343 330.354 226.464 329.43 225.285C328.507 224.106 327.954 222.679 327.842 221.186C327.729 219.692 328.062 218.199 328.799 216.895C329.536 215.591 330.642 214.534 331.979 213.86C333.316 213.185 334.824 212.922 336.31 213.104C337.797 213.286 339.196 213.905 340.331 214.882C341.466 215.86 342.285 217.152 342.685 218.595C343.085 220.038 343.048 221.568 342.579 222.99C341.948 224.893 340.589 226.469 338.799 227.372C337.009 228.275 334.935 228.433 333.029 227.81Z" fill="#00BABB"/>
<path d="M347.029 46.82L348.789 41.49L345.249 39.06C345.291 38.035 345.217 37.0085 345.029 36L348.239 33.06L345.709 28.06L341.449 28.88C340.77 28.0674 340.005 27.3298 339.169 26.68L339.409 22.14L334.079 20.38L331.569 24.17C330.524 24.166 329.481 24.2732 328.459 24.49L325.459 21.35L320.459 23.9L321.269 28.18C320.488 28.873 319.787 29.6512 319.179 30.5L314.749 30.31L313.029 35.62L316.709 38.09C316.684 39.1264 316.771 40.1623 316.969 41.18L313.799 44.18L316.339 49.18L320.609 48.37C321.338 49.0705 322.143 49.6876 323.009 50.21L322.899 54.39L328.229 56.14L330.619 52.72C331.638 52.7789 332.66 52.732 333.669 52.58L336.599 55.81L341.599 53.3L340.769 49C341.504 48.2875 342.158 47.496 342.719 46.64L347.029 46.82ZM328.869 45.23C327.552 44.7993 326.392 43.9874 325.537 42.8971C324.682 41.8068 324.169 40.4872 324.065 39.1055C323.96 37.7237 324.268 36.342 324.949 35.1353C325.63 33.9286 326.654 32.9513 327.891 32.3271C329.129 31.7029 330.523 31.46 331.899 31.629C333.274 31.7981 334.568 32.3715 335.617 33.2767C336.666 34.1819 337.423 35.3781 337.792 36.7139C338.161 38.0496 338.125 39.4647 337.689 40.78C337.4 41.6536 336.943 42.4618 336.342 43.1584C335.741 43.855 335.008 44.4263 334.186 44.8396C333.364 45.2529 332.469 45.5001 331.551 45.5671C330.634 45.6341 329.712 45.5195 328.839 45.23H328.869Z" fill="#5CEEEF"/>
<path d="M357.899 12.68L358.739 10.12L357.029 9C357.046 8.50787 357.013 8.01527 356.929 7.53L358.469 6.12L357.259 3.72L355.259 4.11C354.933 3.69821 354.561 3.32571 354.149 3L354.259 0.82L351.709 0L350.499 1.82C350.004 1.8267 349.511 1.88705 349.029 2L347.589 0.46L345.189 1.68L345.579 3.73C345.21 4.06982 344.875 4.44494 344.579 4.85L342.459 4.75L341.619 7.31L343.379 8.49C343.372 8.98977 343.416 9.48896 343.509 9.98L342.029 11.39L343.249 13.79L345.249 13.4C345.601 13.7347 345.987 14.0329 346.399 14.29L346.349 16.29L348.899 17.13L350.029 15.49C350.517 15.5221 351.006 15.4986 351.489 15.42L352.909 17L355.299 15.8L354.909 13.8C355.262 13.458 355.577 13.0792 355.849 12.67L357.899 12.68ZM349.199 11.92C348.568 11.7141 348.013 11.3256 347.604 10.8039C347.194 10.2822 346.949 9.65073 346.899 8.98944C346.849 8.32814 346.996 7.66681 347.322 7.08923C347.648 6.51165 348.138 6.0438 348.73 5.74497C349.322 5.44613 349.989 5.32975 350.647 5.41058C351.306 5.4914 351.925 5.76579 352.427 6.19898C352.929 6.63217 353.292 7.20466 353.468 7.84394C353.645 8.48322 353.628 9.16051 353.419 9.79C353.138 10.6293 352.537 11.3238 351.747 11.7226C350.957 12.1214 350.041 12.1924 349.199 11.92Z" fill="#C2F9F5"/>
<path d="M312.899 254.68L313.739 252.12L312.029 251C312.046 250.508 312.013 250.015 311.929 249.53L313.469 248.12L312.259 245.72L310.259 246.11C309.933 245.738 309.568 245.402 309.169 245.11L309.279 242.93L306.729 242.09L305.519 243.91C305.02 243.886 304.521 243.916 304.029 244L302.609 242.49L300.209 243.71L300.599 245.71C300.23 246.05 299.895 246.425 299.599 246.83L297.479 246.73L296.639 249.29L298.399 250.47C298.392 250.97 298.436 251.469 298.529 251.96L297.029 253.39L298.249 255.79L300.249 255.4C300.601 255.735 300.987 256.033 301.399 256.29L301.349 258.29L303.899 259.13L305.049 257.49C305.537 257.522 306.026 257.499 306.509 257.42L307.919 258.97L310.309 257.77L309.919 255.77C310.272 255.428 310.587 255.049 310.859 254.64L312.899 254.68ZM304.199 253.92C303.569 253.714 303.013 253.326 302.604 252.804C302.194 252.282 301.949 251.651 301.899 250.989C301.849 250.328 301.996 249.667 302.322 249.089C302.648 248.512 303.138 248.044 303.73 247.745C304.322 247.446 304.989 247.33 305.647 247.411C306.306 247.491 306.925 247.766 307.427 248.199C307.93 248.632 308.292 249.205 308.468 249.844C308.645 250.483 308.628 251.16 308.419 251.79C308.138 252.629 307.537 253.324 306.747 253.723C305.957 254.121 305.041 254.192 304.199 253.92Z" fill="#C2F9F5"/>
<path d="M57.4089 86.71L59.3489 84.78L58.3489 82.95C58.6 82.5139 58.8013 82.051 58.9489 81.57L61.0289 81V78.27L59.0289 77.69C58.912 77.1877 58.7445 76.6985 58.5289 76.23L59.6289 74.31L57.6989 72.37L55.7789 73.46C55.3261 73.2301 54.85 73.0491 54.3589 72.92L53.7689 70.92H50.9689L50.3689 72.92C49.878 73.0543 49.4022 73.2386 48.9489 73.47L47.0289 72.42L45.1289 74.34L46.1889 76.23C45.9453 76.673 45.7541 77.1428 45.6189 77.63L43.6189 78.21V81L45.6189 81.59C45.7775 82.0559 45.9888 82.5021 46.2489 82.92L45.2489 84.7L47.1789 86.64L48.9689 85.64C49.3961 85.8931 49.8485 86.1009 50.3189 86.26L50.8789 88.26H53.6089L54.1889 86.26C54.6651 86.108 55.1243 85.9069 55.5589 85.66L57.4089 86.71ZM49.8789 82C49.4036 81.5244 49.0801 80.9186 48.9491 80.2591C48.8181 79.5996 48.8855 78.9161 49.1429 78.295C49.4003 77.6739 49.8361 77.143 50.3952 76.7695C50.9543 76.396 51.6115 76.1967 52.2839 76.1967C52.9563 76.1967 53.6135 76.396 54.1726 76.7695C54.7317 77.143 55.1675 77.6739 55.4249 78.295C55.6823 78.9161 55.7497 79.5996 55.6187 80.2591C55.4877 80.9186 55.1642 81.5244 54.6889 82C54.0499 82.6357 53.1852 82.9925 52.2839 82.9925C51.3826 82.9925 50.5179 82.6357 49.8789 82Z" fill="#C2F9F5"/>
<path d="M105.289 267.75L106.139 274.34L111.139 275.11C111.609 276.229 112.203 277.292 112.909 278.28L111.029 283.06L116.279 287.11L120.399 284.06C121.54 284.578 122.734 284.974 123.959 285.24L126.019 290.19L132.609 289.34L133.339 284.02C134.456 283.488 135.515 282.841 136.499 282.09L141.259 283.92L145.309 278.64L142.249 274.49C142.709 273.346 143.045 272.156 143.249 270.94L148.069 268.89L147.209 262.3L142.029 261.55C141.521 260.432 140.894 259.373 140.159 258.39L142.029 253.62L136.759 249.57L132.629 252.62C131.489 252.249 130.312 252.004 129.119 251.89L127.119 247.38L120.539 248.23L119.739 253.11C118.617 253.558 117.551 254.131 116.559 254.82L111.779 252.87L107.779 258.1L110.779 262.22C110.361 263.355 110.07 264.532 109.909 265.73L105.289 267.75ZM125.459 260.15C127.079 259.938 128.726 260.211 130.191 260.936C131.656 261.66 132.873 262.802 133.689 264.218C134.504 265.635 134.881 267.261 134.772 268.891C134.663 270.522 134.073 272.083 133.076 273.378C132.079 274.673 130.721 275.644 129.172 276.166C127.624 276.689 125.955 276.741 124.378 276.315C122.8 275.889 121.384 275.004 120.309 273.774C119.234 272.543 118.548 271.021 118.339 269.4C118.061 267.23 118.654 265.038 119.988 263.304C121.323 261.571 123.29 260.436 125.459 260.15Z" fill="#5CEEEF"/>
<path d="M152.129 289L151.209 291.58L152.909 292.8C152.874 293.301 152.894 293.804 152.969 294.3L151.369 295.69L152.539 298.16L154.629 297.81C154.95 298.213 155.312 298.581 155.709 298.91L155.549 301.11L158.119 302.03L159.379 300.21C159.889 300.225 160.398 300.185 160.899 300.09L162.309 301.65L164.779 300.47L164.429 298.38C164.802 298.047 165.137 297.675 165.429 297.27L167.579 297.41L168.499 294.84L166.729 293.59C166.754 293.088 166.724 292.585 166.639 292.09L168.219 290.68L167.039 288.21L164.949 288.56C164.599 288.213 164.214 287.905 163.799 287.64L163.899 285.64L161.329 284.72L160.129 286.36C159.634 286.305 159.134 286.305 158.639 286.36L157.249 284.75L154.789 285.91L155.139 287.99C154.764 288.327 154.428 288.706 154.139 289.12L152.129 289ZM160.949 290C161.583 290.224 162.136 290.632 162.538 291.171C162.941 291.709 163.174 292.356 163.209 293.027C163.245 293.699 163.08 294.365 162.736 294.943C162.392 295.521 161.885 295.984 161.278 296.274C160.671 296.563 159.992 296.666 159.326 296.57C158.661 296.473 158.039 296.182 157.539 295.732C157.039 295.282 156.684 294.694 156.519 294.042C156.353 293.39 156.385 292.704 156.609 292.07C156.912 291.222 157.539 290.528 158.352 290.14C159.165 289.752 160.099 289.702 160.949 290Z" fill="#C2F9F5"/>
<path d="M186.379 120.62C185.549 120.88 160.279 128.54 153.469 116.2C146.549 103.66 163.959 108.64 161.929 102.14C159.899 95.64 139.729 113.07 130.029 104.39C120.329 95.71 139.249 97.31 141.029 93.12C142.809 88.93 114.689 91.78 111.159 82.12C107.629 72.46 113.619 53.65 131.619 68.3C149.619 82.95 152.399 92.51 155.789 87.81C159.179 83.11 146.789 78.81 150.119 69.45C153.449 60.09 170.329 78.13 171.809 91.8C173.289 105.47 178.809 96.03 182.809 99.29C186.339 102.21 189.549 116.35 190.179 119.29C190.208 119.432 190.181 119.58 190.102 119.701C190.024 119.823 189.9 119.909 189.759 119.94L186.379 120.62Z" fill="url(#paint0_linear)"/>
<path d="M166.459 102.5L161.269 79.87C161.217 79.7243 161.114 79.6026 160.978 79.5282C160.843 79.4537 160.685 79.4317 160.534 79.4663C160.383 79.5009 160.251 79.5896 160.161 79.7157C160.072 79.8418 160.032 79.9964 160.049 80.15L164.689 100.36C164.713 100.467 164.705 100.578 164.664 100.68C164.623 100.782 164.553 100.869 164.462 100.93C164.371 100.99 164.263 101.022 164.154 101.02C164.044 101.019 163.938 100.984 163.849 100.92L128.759 76.41C128.626 76.3353 128.47 76.3122 128.321 76.3451C128.172 76.378 128.041 76.4645 127.952 76.5882C127.863 76.7119 127.822 76.8641 127.838 77.0157C127.854 77.1673 127.926 77.3077 128.039 77.41L153.029 94.9C153.125 94.9527 153.203 95.0334 153.252 95.1313C153.301 95.2293 153.319 95.3398 153.304 95.4483C153.289 95.5568 153.241 95.6582 153.167 95.7388C153.092 95.8195 152.996 95.8757 152.889 95.9C149.629 96.9 142.499 98.99 137.729 100.32C137.65 100.342 137.576 100.38 137.512 100.431C137.448 100.482 137.394 100.544 137.354 100.616C137.314 100.687 137.289 100.766 137.279 100.847C137.27 100.929 137.276 101.011 137.299 101.09C137.321 101.169 137.359 101.242 137.409 101.307C137.46 101.371 137.523 101.425 137.595 101.464C137.666 101.504 137.745 101.53 137.826 101.539C137.908 101.549 137.99 101.542 138.069 101.52C138.069 101.52 142.349 100.33 146.549 99.1C151.799 97.58 153.949 96.91 154.849 96.52C154.933 96.4851 155.026 96.4723 155.116 96.4828C155.207 96.4933 155.294 96.5268 155.369 96.58L176.449 111.3C176.55 111.362 176.628 111.456 176.671 111.568C176.713 111.679 176.718 111.801 176.684 111.915C176.649 112.03 176.578 112.129 176.482 112.199C176.385 112.268 176.268 112.304 176.149 112.3L160.019 112.64C159.854 112.64 159.697 112.705 159.58 112.822C159.464 112.938 159.399 113.096 159.399 113.26C159.399 113.424 159.464 113.582 159.58 113.698C159.697 113.815 159.854 113.88 160.019 113.88L179.319 113.48C179.44 113.478 179.558 113.513 179.659 113.58L180.549 114.19C180.627 114.25 180.689 114.329 180.729 114.42C180.783 114.522 180.863 114.607 180.962 114.667C181.061 114.727 181.173 114.759 181.289 114.76H181.349L194.109 123.68C194.246 123.773 194.414 123.808 194.577 123.778C194.739 123.748 194.884 123.656 194.979 123.52C195.056 123.387 195.081 123.23 195.048 123.08C195.014 122.929 194.925 122.797 194.799 122.71L182.099 113.84C182.027 113.792 181.968 113.726 181.928 113.649C181.888 113.572 181.867 113.487 181.869 113.4L181.719 103.76C181.714 103.595 181.643 103.438 181.524 103.324C181.404 103.21 181.244 103.147 181.079 103.15C180.997 103.151 180.917 103.169 180.842 103.201C180.768 103.233 180.7 103.28 180.643 103.339C180.587 103.397 180.542 103.466 180.512 103.542C180.482 103.618 180.467 103.699 180.469 103.78L180.589 111.78C180.593 111.879 180.568 111.978 180.519 112.064C180.47 112.15 180.397 112.221 180.309 112.268C180.222 112.315 180.123 112.336 180.024 112.329C179.925 112.323 179.829 112.288 179.749 112.23L166.609 103.06C166.55 103.02 166.5 102.969 166.462 102.908C166.424 102.848 166.399 102.78 166.389 102.71C166.393 102.635 166.417 102.563 166.459 102.5Z" fill="#F5F6F8"/>
<path d="M382.399 134.44C394.219 133.94 387.859 146.23 385.399 150.32L396.099 141.37C394.359 139.55 380.779 124.93 394.099 124.37C406.549 123.84 398.819 137.52 396.769 140.83L404.209 134.62L404.279 134.71C405.049 130.87 408.759 115.45 417.279 124.89C425.799 134.33 408.919 135.42 404.929 135.53L397.679 141.59C401.499 140.1 415.989 135.14 413.289 147.18C410.399 160.1 398.519 144.36 396.949 142.18L386.169 151.18C390.409 149.56 404.089 145.18 401.469 156.89C398.609 169.64 386.999 154.47 385.179 152L373.919 161.42C378.159 159.8 391.839 155.42 389.209 167.14C386.359 179.88 374.749 164.72 372.929 162.25L355.699 176.65L354.949 175.75L372.079 161.42C369.479 158.64 357.659 145.28 370.349 144.75C381.669 144.27 376.349 155.51 373.709 160.06L384.259 151.24C382.029 148.9 369.439 135 382.399 134.44Z" fill="url(#paint1_linear)"/>
<path d="M153.129 59.22C155.829 46.64 167.029 56.68 170.669 60.36L164.169 46.65C161.779 47.99 142.689 58.3 145.719 44.16C148.559 30.9 160.849 42.77 163.779 45.83L159.259 36.31L159.379 36.26C155.549 34.4 140.379 26.26 152.589 19.88C164.799 13.5 161.399 31.55 160.429 35.78L164.829 45.06C164.299 40.64 163.029 24.06 174.969 30.15C187.779 36.71 167.969 44.93 165.269 46L171.819 59.8C171.279 54.89 170.379 39.3 182.009 45.26C194.639 51.73 175.519 59.82 172.419 61.06L179.269 75.49C178.719 70.58 177.829 54.99 189.449 60.94C202.089 67.42 182.959 75.51 179.869 76.75L190.339 98.81L189.179 99.36L178.769 77.42C175.129 79.42 157.849 88.2 160.769 74.7C163.349 62.65 173.769 71.35 177.769 75.34L171.359 61.83C168.249 63.54 150.179 73 153.129 59.22Z" fill="url(#paint2_linear)"/>
<path d="M376.169 179.45H275.339C274.074 179.45 273.049 180.475 273.049 181.74C273.049 183.005 274.074 184.03 275.339 184.03H376.169C377.434 184.03 378.459 183.005 378.459 181.74C378.459 180.475 377.434 179.45 376.169 179.45Z" fill="#00BABB"/>
<path d="M376.159 179.45H336.619C335.354 179.45 334.329 180.475 334.329 181.74C334.329 183.005 335.354 184.03 336.619 184.03H376.159C377.424 184.03 378.449 183.005 378.449 181.74C378.449 180.475 377.424 179.45 376.159 179.45Z" fill="#00BABB"/>
<path d="M343.419 181.43H339.139C338.802 181.43 338.529 181.703 338.529 182.04C338.529 182.377 338.802 182.65 339.139 182.65H343.419C343.756 182.65 344.029 182.377 344.029 182.04C344.029 181.703 343.756 181.43 343.419 181.43Z" fill="#00BABB"/>
<path d="M350.519 181.41H346.239C345.902 181.41 345.629 181.683 345.629 182.02C345.629 182.357 345.902 182.63 346.239 182.63H350.519C350.856 182.63 351.129 182.357 351.129 182.02C351.129 181.683 350.856 181.41 350.519 181.41Z" fill="#00BABB"/>
<path opacity="0.44" d="M331.589 164.14H174.839C174.066 164.137 173.326 163.829 172.781 163.281C172.235 162.734 171.929 161.993 171.929 161.22L191.509 51.1C191.509 50.3282 191.816 49.5881 192.361 49.0423C192.907 48.4966 193.647 48.19 194.419 48.19H351.159C351.924 48.2005 352.654 48.5117 353.191 49.0563C353.728 49.6009 354.029 50.3351 354.029 51.1L334.499 161.22C334.499 161.993 334.193 162.734 333.647 163.281C333.102 163.829 332.362 164.137 331.589 164.14Z" fill="#4151B7"/>
<path d="M332.729 162H176.029C175.631 162.012 175.236 161.943 174.866 161.797C174.496 161.651 174.161 161.43 173.88 161.149C173.599 160.868 173.378 160.532 173.232 160.163C173.085 159.793 173.016 159.397 173.029 159L192.649 48.91C192.649 48.1382 192.955 47.398 193.501 46.8523C194.047 46.3066 194.787 46 195.559 46H352.299C353.071 46 353.813 46.3063 354.36 46.8517C354.907 47.3972 355.216 48.1373 355.219 48.91L335.639 159C335.651 159.39 335.584 159.778 335.444 160.141C335.303 160.505 335.09 160.836 334.819 161.116C334.548 161.396 334.223 161.618 333.864 161.77C333.505 161.922 333.119 162 332.729 162Z" fill="url(#paint3_linear)"/>
<path opacity="0.17" d="M63.5088 205.24C66.7678 205.198 70.005 205.775 73.0488 206.94C75.1288 207.75 79.7388 206.28 80.4488 204.48C82.5908 199.277 86.0789 194.738 90.555 191.329C95.0312 187.92 100.334 185.764 105.919 185.082C111.504 184.4 117.17 185.216 122.335 187.448C127.5 189.68 131.978 193.246 135.309 197.78C136.449 199.35 142.439 201.17 144.649 200.64C147.373 200.001 150.16 199.665 152.959 199.64C173.339 199.37 190.079 215.32 190.339 235.25C190.599 255.18 174.279 271.56 153.889 271.82C146.028 271.952 138.327 269.593 131.889 265.08C130.889 264.36 125.029 268.48 122.389 270.72C117.248 275.061 110.757 277.479 104.029 277.56C97.8189 277.699 91.7315 275.819 86.6821 272.201C81.6327 268.584 77.8942 263.425 76.0288 257.5C75.4788 255.7 69.8588 253.87 67.0288 254.23C66.0535 254.353 65.0719 254.419 64.0888 254.43C50.1988 254.61 38.7988 243.75 38.6188 230.16C38.4388 216.57 49.6188 205.42 63.5088 205.24Z" fill="#2B0A71"/>
<path d="M66.5089 202.25C69.7651 202.217 72.9973 202.811 76.0289 204C78.1089 204.8 82.7189 203.33 83.4289 201.53C85.5708 196.327 89.059 191.788 93.5351 188.379C98.0112 184.97 103.314 182.814 108.899 182.132C114.484 181.45 120.15 182.266 125.315 184.498C130.48 186.73 134.958 190.296 138.289 194.83C139.419 196.4 145.409 198.23 147.629 197.7C150.35 197.06 153.134 196.725 155.929 196.7C176.319 196.44 193.049 212.38 193.309 232.32C193.569 252.26 177.249 268.62 156.869 268.89C149.008 269.014 141.308 266.651 134.869 262.14C133.869 261.42 128.019 265.55 125.379 267.78C120.232 272.097 113.746 274.494 107.029 274.56C100.819 274.703 94.7315 272.826 89.6816 269.21C84.6316 265.593 80.8931 260.435 79.0289 254.51C78.4789 252.71 72.8589 250.88 70.0289 251.23C69.0541 251.36 68.0722 251.43 67.0889 251.44C53.1989 251.62 41.7889 240.75 41.6189 227.17C41.4489 213.59 52.6189 202.43 66.5089 202.25Z" fill="url(#paint4_linear)"/>
<g opacity="0.16">
<path opacity="0.16" d="M49.3889 259.32C44.5366 259.338 39.8084 257.788 35.9089 254.9C32.1138 252.105 29.311 248.17 27.9089 243.67C27.6589 243.12 24.9089 241.89 22.7389 241.89C22.5891 241.879 22.4387 241.879 22.2889 241.89C21.526 241.988 20.758 242.042 19.9889 242.05H19.7189C14.562 242.072 9.60022 240.08 5.88886 236.5C4.05081 234.748 2.58274 232.644 1.57143 230.315C0.560127 227.985 0.0261045 225.477 0.000933344 222.937C-0.0242378 220.398 0.459953 217.879 1.42489 215.53C2.38982 213.18 3.81591 211.049 5.61886 209.26C8.37366 206.525 11.8621 204.648 15.6619 203.854C19.4617 203.061 23.41 203.386 27.0289 204.79C27.2607 204.867 27.5048 204.901 27.7489 204.89C29.2889 204.89 31.0689 204.03 31.2789 203.51C33.0238 199.1 36.042 195.309 39.9489 192.62C43.9897 189.825 48.7759 188.306 53.6889 188.26H54.0189C57.8759 188.26 61.6785 189.17 65.1185 190.914C68.5586 192.658 71.5392 195.189 73.8189 198.3C74.2589 198.91 77.3689 200.1 79.2789 200.1C79.4383 200.118 79.5994 200.118 79.7589 200.1C81.8561 199.598 84.0025 199.33 86.1589 199.3H86.5489C94.0028 199.261 101.178 202.131 106.549 207.3C109.191 209.821 111.303 212.844 112.759 216.193C114.216 219.542 114.987 223.148 115.029 226.8C115.229 242.17 102.609 254.8 86.8989 255.04H86.5189C80.6699 255.068 74.9518 253.309 70.1289 250C69.1989 250.23 66.1289 252.23 64.0589 254C60.0347 257.395 54.9538 259.284 49.6889 259.34L49.3889 259.32ZM22.7589 239.93C24.9089 239.93 29.2189 241.13 29.8089 243.1C31.1363 247.247 33.7495 250.863 37.2699 253.425C40.7902 255.987 45.0349 257.362 49.3889 257.35H49.6589C54.4678 257.289 59.1072 255.564 62.7889 252.47C62.8389 252.42 68.2189 247.97 70.2489 247.97C70.5373 247.963 70.8206 248.047 71.0589 248.21C75.6821 251.453 81.2125 253.15 86.8589 253.06C101.479 252.87 113.229 241.06 113.049 226.8C112.859 212.7 100.979 201.23 86.5489 201.23H86.1889C84.1679 201.257 82.1559 201.505 80.1889 201.97C79.8809 202.042 79.5651 202.076 79.2489 202.07C77.2489 202.07 73.2489 200.9 72.2489 199.45C70.1154 196.543 67.3176 194.188 64.0889 192.583C60.8602 190.977 57.2944 190.167 53.6889 190.22C49.25 190.236 44.917 191.577 41.2451 194.072C37.5733 196.566 34.7297 200.1 33.0789 204.22C32.4089 205.91 29.4789 206.85 27.7189 206.85C27.2323 206.859 26.748 206.781 26.2889 206.62C23.03 205.36 19.4755 205.073 16.0568 205.794C12.638 206.514 9.50182 208.212 7.02886 210.68C5.41043 212.292 4.13353 214.214 3.27446 216.331C2.41539 218.448 1.99175 220.716 2.02886 223C2.15698 227.608 4.08654 231.981 7.40331 235.182C10.7201 238.383 15.1596 240.156 19.7689 240.12H20.0289C20.6973 240.117 21.365 240.077 22.0289 240C22.2703 239.96 22.5142 239.936 22.7589 239.93Z" fill="#2B0A71"/>
</g>
<path d="M51.1389 258.48C46.2877 258.502 41.5593 256.955 37.6589 254.07C33.8609 251.278 31.0572 247.342 29.6589 242.84C29.4089 242.29 26.6589 241.06 24.4889 241.06C24.3391 241.049 24.1887 241.049 24.0389 241.06C23.2756 241.153 22.5079 241.207 21.7389 241.22C16.4964 241.319 11.4289 239.334 7.64892 235.7C5.80999 233.947 4.34141 231.842 3.33006 229.511C2.3187 227.181 1.78512 224.671 1.76087 222.13C1.73663 219.589 2.22223 217.069 3.18892 214.72C4.15562 212.37 5.58378 210.238 7.38892 208.45C10.1411 205.734 13.6182 203.87 17.4033 203.081C21.1883 202.291 25.1207 202.611 28.7289 204C28.9587 204.071 29.1984 204.105 29.4389 204.1C30.9789 204.1 32.7689 203.24 32.9789 202.71C34.7245 198.303 37.7427 194.515 41.6489 191.83C45.691 189.036 50.4757 187.515 55.3889 187.46H55.7189C59.5851 187.455 63.3979 188.362 66.8472 190.108C70.2965 191.855 73.2848 194.391 75.5689 197.51C76.0089 198.12 79.1189 199.31 81.0289 199.31C81.1903 199.313 81.3515 199.296 81.5089 199.26C83.6074 198.766 85.7533 198.501 87.9089 198.47H88.2889C95.7428 198.431 102.918 201.301 108.289 206.47C110.929 208.99 113.04 212.012 114.496 215.359C115.952 218.706 116.725 222.31 116.769 225.96C116.969 241.34 104.349 254.01 88.6389 254.21H88.2589C82.4116 254.227 76.6978 252.462 71.8789 249.15C70.9589 249.38 67.8789 251.38 65.8189 253.15C61.7922 256.541 56.7129 258.429 51.4489 258.49L51.1389 258.48ZM24.5089 239.1C26.6589 239.1 30.9589 240.3 31.5589 242.27C32.8863 246.417 35.4995 250.033 39.0199 252.595C42.5403 255.157 46.785 256.532 51.1389 256.52H51.4089C56.2142 256.465 60.8515 254.744 64.5289 251.65C64.5889 251.65 69.9689 247.15 71.9989 247.15C72.2874 247.143 72.5706 247.227 72.8089 247.39C77.4325 250.631 82.9633 252.325 88.6089 252.23C103.229 252.05 114.979 240.23 114.789 225.98C114.609 211.88 102.719 200.41 88.2889 200.41H87.9389C85.9173 200.428 83.9044 200.677 81.9389 201.15C81.6332 201.214 81.3213 201.244 81.0089 201.24C79.0089 201.24 75.0089 200.07 74.0089 198.63C71.9063 195.763 69.1567 193.433 65.9838 191.829C62.8109 190.225 59.3042 189.393 55.7489 189.4H55.4389C51.0014 189.417 46.6701 190.758 42.9999 193.253C39.3297 195.747 36.488 199.28 34.8389 203.4C34.1689 205.09 31.2389 206.03 29.4689 206.03C28.9847 206.04 28.5029 205.959 28.0489 205.79C25.8976 204.97 23.611 204.563 21.3089 204.59C16.6142 204.629 12.1236 206.515 8.80892 209.84C7.1925 211.456 5.91703 213.38 5.05814 215.498C4.19926 217.616 3.77445 219.885 3.80892 222.17C3.9396 226.776 5.87029 231.147 9.18678 234.346C12.5033 237.544 16.9414 239.316 21.5489 239.28H21.7889C22.4842 239.269 23.1784 239.222 23.8689 239.14C24.0812 239.113 24.295 239.1 24.5089 239.1Z" fill="url(#paint5_linear)"/>
<g opacity="0.16">
<path opacity="0.16" d="M191.299 256.16C186.446 256.182 181.716 254.632 177.819 251.74C174.024 248.949 171.221 245.017 169.819 240.52C169.569 239.97 166.819 238.74 164.649 238.74C164.499 238.729 164.349 238.729 164.199 238.74C163.435 238.834 162.668 238.887 161.899 238.9C159.298 238.945 156.715 238.477 154.295 237.523C151.876 236.569 149.668 235.148 147.799 233.34C145.961 231.588 144.493 229.484 143.481 227.155C142.47 224.825 141.936 222.317 141.911 219.777C141.886 217.238 142.37 214.719 143.335 212.37C144.3 210.02 145.726 207.889 147.529 206.1C150.27 203.367 153.745 201.488 157.533 200.691C161.321 199.894 165.259 200.213 168.869 201.61C169.102 201.681 169.345 201.715 169.589 201.71C171.129 201.71 172.909 200.84 173.119 200.32C174.864 195.913 177.883 192.125 181.789 189.44C185.832 186.649 190.616 185.128 195.529 185.07H195.859C199.721 185.057 203.532 185.956 206.981 187.694C210.43 189.432 213.42 191.959 215.709 195.07C216.149 195.68 219.259 196.88 221.169 196.88C221.328 196.9 221.489 196.9 221.649 196.88C223.746 196.382 225.893 196.117 228.049 196.09C235.63 195.954 242.956 198.831 248.419 204.09C251.061 206.609 253.172 209.631 254.629 212.978C256.085 216.325 256.857 219.93 256.899 223.58C257.099 238.96 244.479 251.58 228.769 251.83H228.389C222.55 251.86 216.842 250.105 212.029 246.8C211.099 247.03 208.029 249.03 205.959 250.8C201.93 254.187 196.852 256.074 191.589 256.14L191.299 256.16ZM164.669 236.77C166.819 236.77 171.129 237.98 171.729 239.95C173.053 244.097 175.664 247.714 179.183 250.276C182.702 252.838 186.946 254.213 191.299 254.2H191.579C196.386 254.146 201.025 252.421 204.699 249.32C204.749 249.32 210.129 244.83 212.159 244.83C212.447 244.823 212.731 244.907 212.969 245.07C217.591 248.314 223.123 250.009 228.769 249.91C243.389 249.72 255.139 237.91 254.959 223.66C254.769 209.56 242.889 198.08 228.459 198.08H228.099C226.077 198.097 224.064 198.345 222.099 198.82C221.79 198.884 221.474 198.914 221.159 198.91C219.159 198.91 215.159 197.74 214.159 196.3C212.056 193.433 209.307 191.103 206.134 189.499C202.961 187.895 199.454 187.063 195.899 187.07H195.599C191.16 187.086 186.827 188.427 183.155 190.922C179.483 193.416 176.64 196.95 174.989 201.07C174.319 202.76 171.389 203.7 169.629 203.7C169.141 203.71 168.656 203.629 168.199 203.46C166.052 202.635 163.768 202.228 161.469 202.26C156.774 202.299 152.283 204.185 148.969 207.51C147.349 209.123 146.072 211.047 145.212 213.166C144.353 215.284 143.93 217.554 143.969 219.84C144.086 224.444 146.003 228.819 149.308 232.027C152.613 235.235 157.043 237.02 161.649 237H161.889C162.587 236.989 163.285 236.942 163.979 236.86C164.206 236.814 164.437 236.784 164.669 236.77Z" fill="#2B0A71"/>
</g>
<path d="M163.179 200.46C165.608 200.418 168.022 200.846 170.289 201.72C171.839 202.32 175.289 201.22 175.799 199.88C177.394 196.002 179.992 192.619 183.327 190.077C186.662 187.536 190.614 185.928 194.776 185.419C198.938 184.91 203.161 185.518 207.01 187.181C210.859 188.843 214.196 191.501 216.679 194.88C217.529 196.05 221.989 197.41 223.679 197.02C225.704 196.533 227.777 196.275 229.859 196.25C245.059 196.05 257.529 207.94 257.719 222.79C257.909 237.64 245.719 249.85 230.559 250.04C224.709 250.138 218.977 248.388 214.179 245.04C213.409 244.5 209.079 247.58 207.109 249.24C204.398 251.529 201.166 253.116 197.697 253.863C194.229 254.61 190.63 254.492 187.217 253.521C183.805 252.55 180.683 250.756 178.127 248.295C175.571 245.834 173.659 242.783 172.559 239.41C172.149 238.07 167.959 236.7 165.879 236.97C165.149 237.061 164.414 237.111 163.679 237.12C161.243 237.199 158.816 236.791 156.539 235.921C154.263 235.05 152.183 233.734 150.421 232.05C148.659 230.366 147.251 228.348 146.278 226.113C145.306 223.878 144.789 221.472 144.758 219.035C144.726 216.598 145.181 214.179 146.096 211.92C147.011 209.661 148.367 207.607 150.085 205.878C151.803 204.149 153.849 202.781 156.102 201.852C158.356 200.924 160.772 200.454 163.209 200.47L163.179 200.46Z" fill="url(#paint6_linear)"/>
<path d="M208.749 147.74C208.259 148.2 207.642 148.503 206.979 148.61C206.869 150 206.829 151.67 206.819 152.61C206.939 153.89 207.669 156.7 211.049 162.61C215.989 171.27 210.049 170.61 208.049 173.79C206.499 176.3 206.299 180.79 208.049 182.84L217.839 180.04C217.839 180.04 222.009 177.63 222.889 173.25C223.769 168.87 216.749 161.73 216.419 158.77C216.089 155.81 213.129 154.16 210.719 153.83C209.029 153.59 208.749 149.84 208.749 147.74Z" fill="#404142"/>
<path style="mix-blend-mode:multiply" opacity="0.55" d="M212.489 159.34C210.489 157.42 207.489 151.83 207.029 148.6C206.919 149.99 206.879 151.66 206.869 152.6C206.989 153.88 207.719 156.69 211.099 162.6C216.039 171.26 210.099 170.6 208.099 173.78C206.549 176.29 206.349 180.78 208.099 182.83L209.469 181.22C211.099 177.96 215.239 176.09 215.329 174.35C215.409 171.68 215.409 162.14 212.489 159.34Z" fill="url(#paint7_linear)"/>
<path d="M231.449 192C231.839 190.73 232.379 188 231.999 186.73C231.569 185.3 228.999 183.14 227.609 182.68C223.379 181.31 213.359 184.43 209.849 183.88C206.339 183.33 206.119 176.97 208.089 173.79C210.059 170.61 215.989 171.27 211.089 162.61C207.709 156.67 206.979 153.86 206.859 152.61C206.859 151.71 206.859 150.61 206.979 149.23C207.177 149.291 207.386 149.308 207.591 149.28C207.797 149.252 207.994 149.181 208.169 149.07C209.319 148.33 210.229 145.98 210.229 144.31C210.229 141.9 208.579 139.94 206.549 139.94C204.519 139.94 202.879 141.94 202.879 144.31C202.874 144.871 202.965 145.429 203.149 145.96C202.949 146.96 202.539 149.12 202.249 150.8C201.669 152.44 197.519 164.24 196.619 173.38C195.869 180.92 194.249 194.07 202.769 194.64C213.119 195.33 225.569 187.97 225.569 191.04C225.569 194.11 219.869 201.13 219.869 209.47C219.869 217.81 220.609 217.22 219.649 219.56C219.329 220.33 218.009 221.69 218.109 222.56C218.209 223.43 219.759 224.41 219.979 225.19C220.279 226.3 219.689 228.72 220.089 229.8C220.489 230.88 222.589 232.88 223.489 232.32C224.389 231.76 222.949 230.99 222.659 229.85C222.199 227.99 222.319 221.93 222.609 220.04C223.689 212.71 229.329 199 231.449 192Z" fill="#FFB183"/>
<path d="M232.029 186.72C231.599 185.29 229.029 183.13 227.639 182.67C223.409 181.3 213.389 184.42 209.879 183.87C209.271 183.745 208.709 183.453 208.257 183.028C207.805 182.602 207.48 182.059 207.319 181.46H195.959C195.799 187.85 196.859 194.21 202.729 194.6C213.079 195.29 225.529 187.93 225.529 191C225.529 194.07 219.829 201.09 219.829 209.43C219.829 215.99 220.289 217.03 220.009 218.31H222.879C224.479 210.79 229.479 198.51 231.449 191.99C231.839 190.72 232.379 188 232.029 186.72Z" fill="#F5386E"/>
<g style="mix-blend-mode:multiply" opacity="0.3">
<path d="M230.889 185C229.983 183.981 228.863 183.176 227.609 182.64C225.489 181.95 221.929 182.39 218.449 182.93C218.529 184.46 218.679 187.68 218.869 191.61C222.819 190.38 225.529 189.54 225.529 190.97C225.529 194.04 219.829 201.06 219.829 209.4C219.829 215.75 220.259 216.92 220.039 218.16V218.28H222.729C222.579 215.57 222.279 211.92 222.349 209.4C222.439 205.87 229.229 191.09 230.889 185Z" fill="#F5386E"/>
</g>
<g style="mix-blend-mode:multiply" opacity="0.5">
<path d="M227.609 182.67C223.379 181.3 213.359 184.42 209.849 183.87C209.312 183.772 208.809 183.536 208.39 183.185C207.971 182.835 207.65 182.381 207.459 181.87C207.249 185.03 208.459 188.96 216.309 187.87C228.979 186.06 230.309 186.06 231.779 188.2L232.099 188.66C232.178 188.026 232.144 187.382 231.999 186.76C231.569 185.29 229.029 183.13 227.609 182.67Z" fill="#F5386E"/>
</g>
<path d="M207.339 181.42C206.699 179.16 206.909 175.69 208.089 173.78C210.089 170.6 215.989 171.26 211.089 162.6C207.949 157.07 207.089 154.26 206.889 152.86C206.389 152.8 205.889 152.74 205.399 152.65C204.219 152.43 203.069 152.05 201.879 151.81C200.689 155.28 197.409 165.33 196.619 173.34C196.349 176.03 195.979 179.43 195.979 182.72C195.939 182.87 207.029 181.51 207.339 181.42Z" fill="url(#paint8_linear)"/>
<path d="M196.029 182.8C195.969 182.8 195.879 182.8 195.879 182.72C195.879 179.67 196.199 176.5 196.449 173.95L196.509 173.34C197.299 165.43 200.509 155.64 201.779 151.79H201.839C202.399 151.9 202.969 152.05 203.519 152.2C204.069 152.35 204.739 152.52 205.349 152.63C205.959 152.74 206.429 152.79 206.839 152.83C207.049 154.27 207.939 157.13 211.029 162.55C214.609 168.83 212.519 170.25 210.319 171.75C209.437 172.252 208.67 172.933 208.069 173.75C206.839 175.75 206.719 179.22 207.319 181.33V181.39C207.089 181.57 197.029 182.8 196.029 182.8ZM196.029 182.67C196.959 182.67 206.379 181.52 207.259 181.37C206.679 179.23 206.809 175.74 208.039 173.75C208.649 172.904 209.429 172.196 210.329 171.67C212.479 170.2 214.519 168.81 210.999 162.67C207.939 157.29 206.999 154.42 206.799 152.95C206.389 152.95 205.869 152.85 205.349 152.75C204.829 152.65 204.109 152.48 203.509 152.32C202.909 152.16 202.429 152.04 201.889 151.93C200.549 155.8 197.419 165.53 196.639 173.39L196.579 174.01C196.329 176.5 196.029 179.64 196.029 182.67Z" fill="url(#paint9_linear)"/>
<path d="M207.839 182.48C207.839 182.48 221.519 174.62 222.309 174.4C223.099 174.18 227.759 171.7 230.059 174.33C232.359 176.96 225.359 194.9 225.359 194.9C225.359 194.9 221.219 207.09 221.219 209.06C221.219 211.03 220.749 217.11 221.219 219.06C221.689 221.01 221.029 221 221.029 221C220.53 220.755 220.105 220.383 219.796 219.921C219.487 219.459 219.305 218.924 219.269 218.37C219.219 216.5 219.169 213.76 218.399 212.37C217.629 210.98 216.199 209.63 216.639 208.32C217.079 207.01 218.159 207.18 218.709 206.03C219.259 204.88 220.969 185.63 221.929 182.49C221.879 182.45 210.719 187.08 207.839 182.48Z" fill="#FD9C79"/>
<path d="M201.089 168.08C202.209 165.7 204.089 161.37 203.579 159.67C202.579 156.27 200.339 156.73 199.079 157.37C196.669 158.58 194.729 163.78 194.179 168.32L201.089 168.08Z" fill="url(#paint10_linear)"/>
<path d="M194.109 168.39V168.32C194.639 163.92 196.539 158.56 199.039 157.32C199.574 157.041 200.166 156.888 200.769 156.87C201.699 156.87 202.959 157.35 203.629 159.66C204.129 161.37 202.279 165.66 201.139 168.12L194.109 168.39ZM200.779 157C200.196 157.018 199.625 157.169 199.109 157.44C196.659 158.67 194.789 163.93 194.259 168.28L201.029 168C202.169 165.58 203.979 161.32 203.499 159.67C203.029 157.89 202.029 157 200.779 157Z" fill="url(#paint11_linear)"/>
<g style="mix-blend-mode:multiply" opacity="0.2">
<path d="M209.029 141.07C208.718 140.71 208.335 140.419 207.904 140.217C207.473 140.016 207.005 139.908 206.529 139.9C204.529 139.9 202.859 141.9 202.859 144.27C202.854 144.831 202.945 145.389 203.129 145.92C202.929 146.92 202.519 149.08 202.229 150.76C201.649 152.4 197.499 164.2 196.599 173.34C196.039 179.01 194.979 187.87 198.119 192.15C198.119 191.99 198.059 191.83 198.019 191.66C197.259 188.26 197.799 181.79 197.909 178.5C198.019 175.21 202.189 158.21 201.969 156.13C201.749 154.05 206.579 147.9 207.669 146.04C208.349 144.454 208.806 142.781 209.029 141.07Z" fill="#5B86C4"/>
</g>
<path d="M210.189 144.27C210.189 144.27 211.379 137.15 203.709 139.57C196.039 141.99 198.879 148.67 198.879 148.67C195.71 149.81 193.07 152.073 191.459 155.03C188.969 159.85 190.459 163.29 190.459 163.29C190.459 163.29 185.889 165.01 185.559 171.48C185.229 177.95 196.029 178.8 196.029 178.8C196.029 178.8 200.029 164.45 199.869 160.57C199.649 154.94 202.869 150.97 204.199 148.89C204.199 148.89 207.199 145.09 207.389 142.12C207.439 142.12 208.659 144.15 210.189 144.27Z" fill="#404142"/>
<path style="mix-blend-mode:multiply" opacity="0.3" d="M207.359 142.7C206.382 144.529 205.053 146.147 203.449 147.46C201.069 149.22 195.509 158.46 194.929 166.37C194.579 171.1 194.149 175.2 194.459 178.58C195.459 178.75 196.079 178.8 196.079 178.8C196.079 178.8 200.079 164.45 199.919 160.57C199.699 154.94 202.919 150.97 204.249 148.89C204.249 148.89 206.849 145.56 207.359 142.7Z" fill="url(#paint12_linear)"/>
<path d="M230.029 174.33C227.729 171.7 223.089 174.19 222.279 174.4C221.469 174.61 207.759 182.5 207.759 182.5C210.649 187.1 221.849 182.45 221.849 182.45C221.029 185.13 219.659 199.58 218.939 204.45H222.279C223.509 200.26 225.329 194.9 225.329 194.9C225.329 194.9 232.369 177 230.029 174.33Z" fill="#F5386E"/>
<path d="M105.969 194C106.349 192.73 106.899 190 106.509 188.73C106.079 187.3 103.509 185.13 102.129 184.67C97.8888 183.31 87.8689 186.43 84.3589 185.88C80.8489 185.33 80.6289 178.97 82.6089 175.79C84.5889 172.61 90.4989 173.27 85.6089 164.6C82.2189 158.67 81.4988 155.86 81.3688 154.6C81.3688 153.71 81.3689 152.6 81.4889 151.23C81.6873 151.289 81.8959 151.305 82.1009 151.277C82.306 151.249 82.5029 151.179 82.6789 151.07C83.8289 150.33 84.7389 147.98 84.7389 146.31C84.7389 143.9 83.0889 141.94 81.0589 141.94C79.0289 141.94 77.3889 143.94 77.3889 146.31C77.39 146.871 77.4811 147.428 77.6588 147.96C77.4588 148.96 77.0489 151.12 76.7589 152.8C76.1789 154.43 72.0388 166.23 71.1288 175.38C70.3788 182.91 68.7589 196.07 77.2789 196.64C87.6289 197.33 100.079 189.97 100.079 193.04C100.079 196.11 94.3788 203.13 94.3788 211.46C94.3788 219.79 95.1188 219.22 94.1588 221.55C93.8388 222.32 92.5188 223.69 92.6288 224.55C92.7388 225.41 94.2789 226.41 94.4888 227.19C94.7888 228.3 94.1989 230.71 94.5989 231.79C94.9988 232.87 97.0989 234.88 97.9989 234.31C98.8989 233.74 97.4589 232.98 97.1789 231.85C96.7089 229.99 96.8288 223.93 97.1188 222.03C98.2088 214.66 103.839 201 105.969 194Z" fill="#FFB183"/>
<path d="M106.509 188.68C106.079 187.25 103.509 185.08 102.129 184.62C97.8889 183.26 87.8689 186.38 84.3589 185.83C83.7522 185.704 83.1923 185.412 82.742 184.987C82.2917 184.561 81.9686 184.019 81.8089 183.42H70.469C70.309 189.8 71.3689 196.17 77.2389 196.56C87.5889 197.25 100.039 189.89 100.039 192.96C100.039 196.03 94.3389 203.05 94.3389 211.38C94.3389 217.95 94.7989 218.98 94.5289 220.27H97.3889C98.9889 212.74 103.989 200.47 105.969 193.95C106.349 192.68 106.899 190 106.509 188.68Z" fill="#3A389A"/>
<g style="mix-blend-mode:multiply" opacity="0.3">
<path d="M105.399 187C104.492 185.985 103.376 185.176 102.129 184.63C100.009 183.95 96.439 184.39 92.959 184.93C93.039 186.46 93.199 189.68 93.379 193.61C97.379 192.37 100.039 191.54 100.039 192.97C100.039 196.04 94.339 203.06 94.339 211.39C94.339 217.75 94.769 218.92 94.549 220.15V220.28H97.239C97.089 217.57 96.799 213.92 96.859 211.39C96.959 207.83 103.739 193 105.399 187Z" fill="#3B67AE"/>
</g>
<g style="mix-blend-mode:multiply" opacity="0.5">
<path d="M102.129 184.62C97.8888 183.26 87.8688 186.38 84.3588 185.83C83.8223 185.73 83.3206 185.493 82.902 185.143C82.4834 184.793 82.162 184.34 81.9688 183.83C81.7588 186.98 82.9688 190.92 90.8188 189.83C103.489 188.02 104.819 188.02 106.289 190.16L106.609 190.62C106.688 189.986 106.655 189.342 106.509 188.72C106.079 187.25 103.549 185.08 102.129 184.62Z" fill="#3B67AE"/>
</g>
<path d="M81.8489 183.37C81.2089 181.12 81.4189 177.65 82.6089 175.74C84.6089 172.56 90.4989 173.22 85.6089 164.55C82.4589 159.03 81.6089 156.21 81.4089 154.81C80.9089 154.76 80.4089 154.7 79.9089 154.61C78.7289 154.39 77.5789 154 76.3989 153.77C75.1989 157.24 71.9189 167.29 71.1289 175.3C70.8589 177.99 70.4989 181.39 70.4989 184.68C70.4589 184.82 81.5689 183.46 81.8489 183.37Z" fill="url(#paint13_linear)"/>
<path d="M70.5389 184.75C70.4789 184.75 70.3889 184.75 70.3889 184.68C70.3889 181.63 70.7089 178.46 70.9689 175.91L71.0289 175.3C71.8089 167.38 74.9689 157.59 76.2889 153.75V153.7H76.3489C76.9189 153.81 77.4789 153.96 78.0389 154.1C78.5989 154.24 79.2489 154.42 79.8689 154.54C80.4889 154.66 80.8689 154.69 81.3489 154.74V154.79C81.5589 156.24 82.4589 159.09 85.5389 164.51C89.1189 170.79 87.0389 172.22 84.8289 173.72C83.9485 174.224 83.1823 174.905 82.5789 175.72C81.3489 177.72 81.2289 181.2 81.8289 183.31V183.37H81.7689C81.5989 183.52 71.5089 184.75 70.5389 184.75ZM70.5389 184.63C71.4689 184.63 80.8889 183.48 81.7689 183.33C81.1889 181.19 81.3189 177.69 82.5489 175.71C83.1556 174.859 83.9362 174.147 84.8389 173.62C86.9889 172.15 89.0289 170.76 85.5089 164.62C82.4489 159.25 81.5089 156.38 81.3089 154.91C80.8789 154.86 80.3789 154.8 79.8589 154.71C79.3389 154.62 78.6189 154.43 78.0189 154.28C77.4189 154.13 76.9389 153.99 76.3989 153.88C75.0689 157.76 71.9289 167.48 71.1489 175.35L71.0889 175.96C70.8389 178.45 70.5189 181.6 70.5189 184.63H70.5389Z" fill="url(#paint14_linear)"/>
<path d="M82.3489 184.44C82.3489 184.44 96.0289 176.58 96.8289 176.36C97.6289 176.14 102.269 173.66 104.579 176.29C106.889 178.92 99.8689 196.86 99.8689 196.86C99.8689 196.86 95.7289 209 95.7289 211C95.7289 213 95.2689 219 95.7289 221C96.1889 223 95.4589 222.91 95.4589 222.91C94.9595 222.667 94.5341 222.295 94.2264 221.833C93.9188 221.371 93.7401 220.834 93.7089 220.28C93.6489 218.42 93.5989 215.68 92.8289 214.28C92.0589 212.88 90.6389 211.54 91.0689 210.22C91.4989 208.9 92.5889 209.09 93.1389 207.94C93.6889 206.79 95.4089 187.54 96.3589 184.39C96.3889 184.4 85.2289 189 82.3489 184.44Z" fill="#FD9C79"/>
<path d="M73.5888 159.32C69.5088 161.37 66.7888 174.79 69.8688 177.2C72.9488 179.61 91.6189 167.69 93.1789 166.78C93.2025 166.76 93.2326 166.748 93.2639 166.748C93.2951 166.748 93.3252 166.76 93.3489 166.78C93.5939 167.03 93.8694 167.249 94.1689 167.43C94.7696 167.44 95.3688 167.366 95.9489 167.21C96.3288 167.15 96.5288 167.03 96.7988 167.21L99.6389 168.46C99.8789 168.6 100.119 168.46 99.9289 168.27L95.0289 164.82C94.3588 164.392 93.5507 164.234 92.7689 164.38L88.1689 166.38L75.5888 171.78C75.4981 171.804 75.4021 171.798 75.3145 171.765C75.2269 171.731 75.152 171.671 75.1002 171.593C75.0484 171.515 75.0223 171.422 75.0257 171.328C75.029 171.235 75.0616 171.144 75.1188 171.07C76.0388 169.19 78.6688 163.63 78.1188 161.64C77.0988 158.22 74.8588 158.69 73.5888 159.32Z" fill="#FFB183"/>
<path d="M75.599 170C76.729 167.62 78.599 163.28 78.089 161.58C77.089 158.18 74.859 158.65 73.589 159.28C71.179 160.5 69.239 165.7 68.699 170.28L75.599 170Z" fill="url(#paint15_linear)"/>
<path d="M68.6189 170.35V170.27C69.1489 165.87 71.0489 160.52 73.5589 159.27C74.0912 158.993 74.6791 158.839 75.2789 158.82C76.2189 158.82 77.4689 159.31 78.1389 161.62C78.6389 163.32 76.7889 167.62 75.6489 170.08L68.6189 170.35ZM75.2889 158.94C74.7063 158.96 74.1356 159.11 73.6189 159.38C71.1789 160.61 69.2989 165.86 68.7689 170.21L75.5589 169.98C76.6989 167.56 78.5589 163.3 78.0289 161.64C77.4989 159.98 76.5889 158.94 75.2889 158.94Z" fill="url(#paint16_linear)"/>
<path d="M104.579 176.29C102.269 173.66 97.5788 176.14 96.8288 176.36C96.0788 176.58 82.3088 184.45 82.3088 184.45C85.1888 189.04 96.3888 184.45 96.3888 184.45C95.5788 187.14 94.1988 201.59 93.4788 206.45H96.8188C98.0488 202.27 99.8188 196.91 99.8188 196.91C99.8188 196.91 106.879 178.92 104.579 176.29Z" fill="#3A389A"/>
<g opacity="0.15">
<path opacity="0.15" d="M170.349 193.72C171.959 190.82 171.749 189.96 169.279 187.49C167.189 185.4 157.979 181.63 150.059 178.18C148.527 178.081 147.081 177.439 145.979 176.37L145.859 176.32C140.859 174.05 140.929 171.84 140.859 167.1L141.219 167.23C140.59 165.902 140.266 164.45 140.269 162.98C140.278 162.265 140.403 161.555 140.639 160.88L140.479 160.78C140.189 158.4 139.727 156.044 139.099 153.73C139.099 153.46 138.949 151.8 138.849 150.3C139.229 150.3 139.529 150.4 139.849 150.15C140.849 149.36 141.259 147.15 141.419 145.55C141.513 145.077 141.498 144.589 141.377 144.122C141.255 143.655 141.03 143.222 140.717 142.855C140.405 142.487 140.013 142.195 139.572 142C139.131 141.806 138.651 141.713 138.169 141.73C136.169 141.73 134.569 143.65 134.569 146.01C134.569 146.561 134.66 147.109 134.839 147.63C134.599 148.83 134.079 151.53 133.839 153.23C133.419 153.99 132.609 155.48 131.679 157.48C130.532 158.677 129.866 160.254 129.809 161.91C127.629 167.63 125.649 175.19 126.629 182.23C128.176 187.388 131.252 191.956 135.449 195.33C142.319 200.71 143.289 200.92 143.289 200.92C143.289 200.92 141.029 211.77 137.809 228.32L136.689 230.92C136.64 231.04 136.626 231.171 136.649 231.299C136.672 231.427 136.731 231.545 136.819 231.64C137.359 232.2 138.539 233.49 139.959 235.3C141.889 237.77 145.539 242.82 145.869 239.92C146.199 237.02 140.819 230.79 141.139 229.28C141.459 227.77 152.739 207.62 152.209 201.35C151.559 193.72 146.079 189.28 144.579 187.28C144.359 186.99 150.579 189.56 153.169 190.57C155.759 191.58 156.539 192.07 159.169 193.22C160.819 193.94 159.169 195.87 158.559 203.96C157.949 212.05 157.449 212.05 156.959 214.14C156.469 216.23 156.379 216.55 157.399 216.55L168.619 216.61C168.619 216.61 172.689 215.61 166.199 213.96C159.709 212.31 161.099 213.17 161.099 211.88C161.099 210.59 168.739 196.62 170.349 193.72Z" fill="#2B0A71"/>
</g>
<path d="M170.309 192.62C171.919 189.72 171.699 188.86 169.229 186.39C166.759 183.92 154.299 179.08 145.809 175.21C137.579 171.46 143.109 167.84 139.049 152.63C138.999 152.36 138.899 150.7 138.799 149.2C139.189 149.2 139.479 149.3 139.799 149.05C140.799 148.25 141.219 146.05 141.369 144.45C141.465 143.977 141.452 143.488 141.331 143.02C141.21 142.552 140.985 142.118 140.672 141.751C140.359 141.383 139.967 141.091 139.524 140.897C139.082 140.702 138.602 140.611 138.119 140.63C136.119 140.63 134.519 142.55 134.519 144.91C134.519 145.461 134.61 146.009 134.789 146.53C134.559 147.73 134.029 150.43 133.789 152.13C132.159 155.04 124.869 168.89 126.589 181.13C128.129 186.292 131.201 190.864 135.399 194.24C142.269 199.61 143.239 199.83 143.239 199.83C143.239 199.83 140.979 210.68 137.759 227.23L136.649 229.83C136.594 229.949 136.578 230.082 136.601 230.21C136.624 230.339 136.686 230.458 136.779 230.55C137.309 231.11 138.489 232.4 139.909 234.21C141.839 236.68 145.499 241.73 145.819 238.83C146.139 235.93 140.769 229.7 141.089 228.19C141.409 226.68 152.689 206.53 152.159 200.26C151.509 192.63 146.029 188.19 144.529 186.18C144.309 185.9 150.529 188.47 153.119 189.48C155.709 190.49 156.489 190.98 159.119 192.13C160.769 192.85 159.119 194.78 158.509 202.87C157.899 210.96 157.399 210.96 156.909 213.05C156.419 215.14 156.329 215.46 157.349 215.46L168.579 215.52C168.579 215.52 172.639 214.52 166.149 212.87C159.659 211.22 161.059 212.08 161.059 210.79C161.059 209.5 168.689 195.52 170.309 192.62Z" fill="#FFB183"/>
<path d="M142.589 173.13C139.329 169.78 142.509 165.27 139.179 152.8C139.179 152.72 139.039 152.35 138.999 152.1H133.779C132.369 154.61 126.719 165.32 126.339 176.1L142.589 173.13Z" fill="url(#paint17_linear)"/>
<path d="M126.269 176.19V176.11C126.649 165.49 132.049 155.11 133.709 152.11H133.759H139.029V152.16C139.029 152.32 139.129 152.54 139.169 152.69C139.209 152.84 139.169 152.83 139.219 152.86C140.422 157.284 141.001 161.855 140.939 166.44C140.939 169.6 140.989 171.5 142.599 173.16L142.679 173.24H142.569L126.269 176.19ZM133.819 152.19C132.159 155.19 126.819 165.5 126.399 176.05L142.459 173.1C140.899 171.42 140.879 169.41 140.849 166.38C140.901 161.802 140.319 157.238 139.119 152.82C139.122 152.77 139.122 152.72 139.119 152.67C139.119 152.53 139.019 152.33 138.989 152.17L133.819 152.19Z" fill="url(#paint18_linear)"/>
<path d="M169.229 186.39C166.759 183.92 154.299 179.08 145.809 175.21C144.575 174.709 143.45 173.972 142.499 173.04L126.369 175.49C126.253 177.369 126.324 179.255 126.579 181.12C128.119 186.282 131.191 190.854 135.389 194.23C142.259 199.6 143.229 199.82 143.229 199.82C143.229 199.82 140.969 210.67 137.749 227.22V227.3L141.149 228.09C141.839 225.98 152.709 206.41 152.149 200.25C151.499 192.62 146.019 188.18 144.519 186.17C144.299 185.89 150.519 188.46 153.109 189.47C155.699 190.48 156.479 190.97 159.109 192.12C160.759 192.84 159.109 194.77 158.499 202.86C158.373 205.611 158.022 208.347 157.449 211.04H161.029C161.04 210.95 161.04 210.86 161.029 210.77C161.029 209.48 168.649 195.51 170.269 192.61C171.889 189.71 171.699 188.86 169.229 186.39Z" fill="#3A389A"/>
<g style="mix-blend-mode:multiply" opacity="0.3">
<path d="M157.469 211H158.789C159.699 207.27 163.609 190.7 161.789 188C159.709 184.92 137.789 179.19 137.789 179.19L144.269 186.19L144.889 186.59L144.559 186.17C144.339 185.89 150.559 188.46 153.149 189.47C155.739 190.48 156.519 190.97 159.149 192.12C160.799 192.84 159.149 194.77 158.539 202.86C158.404 205.598 158.046 208.32 157.469 211Z" fill="#3B67AE"/>
</g>
<path d="M134.499 147.57C133.859 146.77 131.099 142.57 132.719 141.07C134.339 139.57 138.569 138.62 140.469 139.42C142.369 140.22 141.339 142.94 141.269 142.96C140.335 143.078 139.442 143.41 138.658 143.931C137.874 144.451 137.22 145.146 136.749 145.96C136.749 145.96 135.859 144.11 135.359 144.96C135.211 145.298 135.14 145.664 135.152 146.033C135.164 146.402 135.259 146.763 135.429 147.09C135.433 147.103 135.432 147.117 135.428 147.129C135.423 147.142 135.414 147.152 135.402 147.159C135.391 147.166 135.377 147.169 135.364 147.167C135.351 147.166 135.338 147.16 135.329 147.15C135.329 147.15 134.619 147.72 134.499 147.57Z" fill="#404142"/>
<g style="mix-blend-mode:multiply" opacity="0.2">
<path style="mix-blend-mode:multiply" opacity="0.2" d="M146.219 198.66C146.429 198.83 146.219 198.66 146.219 198.66V198.66Z" fill="url(#paint19_linear)"/>
<g style="mix-blend-mode:multiply" opacity="0.2">
<path d="M146.309 198.8C146.309 198.8 146.309 198.8 146.179 198.73V198.57L146.259 198.64C146.349 198.72 146.379 198.75 146.359 198.79L146.309 198.8Z" fill="#3B67AE"/>
</g>
<path style="mix-blend-mode:multiply" opacity="0.2" d="M146.219 198.68C145.819 198.38 143.889 196.86 135.999 190.51C129.419 185.21 127.589 176.12 127.279 169C126.332 172.967 126.095 177.07 126.579 181.12C128.119 186.282 131.191 190.854 135.389 194.23C142.259 199.6 143.229 199.82 143.229 199.82C143.229 199.82 140.969 210.67 137.749 227.22L136.639 229.82C136.584 229.939 136.568 230.072 136.591 230.2C136.614 230.329 136.676 230.448 136.769 230.54C137.049 230.84 137.529 231.35 138.119 232.04L146.219 198.68Z" fill="url(#paint20_linear)"/>
<g style="mix-blend-mode:multiply" opacity="0.2">
<path d="M138.159 232.17L138.079 232.08C137.479 231.4 137.009 230.89 136.719 230.58C136.62 230.477 136.554 230.347 136.529 230.206C136.504 230.066 136.521 229.921 136.579 229.79L137.689 227.19C140.759 211.43 142.979 200.71 143.159 199.86C142.869 199.74 141.379 199 135.349 194.28C131.151 190.888 128.073 186.309 126.519 181.14C126.031 177.081 126.264 172.968 127.209 168.99L127.319 168.53V169C127.619 175.84 129.379 185.11 136.019 190.46C144.019 196.93 145.869 198.35 146.239 198.63L138.159 232.17ZM127.239 169.49C126.37 173.303 126.167 177.238 126.639 181.12C128.194 186.256 131.257 190.806 135.429 194.18C142.149 199.44 143.199 199.75 143.239 199.76H143.299V199.82C143.299 199.93 141.009 210.82 137.819 227.22L136.699 229.83C136.654 229.94 136.641 230.061 136.662 230.178C136.683 230.295 136.738 230.403 136.819 230.49C137.099 230.78 137.539 231.26 138.099 231.9L146.159 198.69C145.719 198.36 143.779 196.84 135.969 190.55C129.439 185.3 127.599 176.3 127.239 169.49Z" fill="#3B67AE"/>
</g>
</g>
<path d="M157.449 211.09H161.039C160.889 211.97 160.209 211.38 166.159 212.89C172.649 214.54 168.589 215.54 168.589 215.54L157.359 215.48C156.359 215.48 156.439 215.17 156.919 213.07C157.099 212.28 157.269 211.79 157.449 211.09Z" fill="#F5386E"/>
<path d="M139.899 234.2C138.479 232.39 137.299 231.1 136.769 230.54C136.676 230.448 136.614 230.329 136.591 230.2C136.568 230.072 136.584 229.939 136.639 229.82L137.719 227.28L141.099 228.12C141.099 228.12 141.099 228.12 141.099 228.18C140.779 229.69 146.099 235.92 145.829 238.82C145.559 241.72 141.829 236.67 139.899 234.2Z" fill="#F5386E"/>
<path d="M251.649 179H51.1888C50.9116 179 50.6458 178.89 50.4499 178.694C50.2539 178.498 50.1438 178.232 50.1438 177.955C50.1438 177.678 50.2539 177.412 50.4499 177.216C50.6458 177.02 50.9116 176.91 51.1888 176.91H251.649C251.926 176.91 252.192 177.02 252.388 177.216C252.584 177.412 252.694 177.678 252.694 177.955C252.694 178.232 252.584 178.498 252.388 178.694C252.192 178.89 251.926 179 251.649 179Z" fill="#00BABB"/>
<path d="M244.749 176.89H218.299C217.299 176.89 217.119 175.81 218.069 175.61C218.145 175.6 218.223 175.6 218.299 175.61H244.749C245.749 175.61 245.919 176.69 244.979 176.9L244.749 176.89Z" fill="#3B67AE"/>
<path d="M112.759 176.11H92.929L96.569 161.53H116.389L112.759 176.11Z" fill="#5B86C4"/>
<path d="M112.029 176.89H85.5389C84.5389 176.89 84.3589 175.81 85.3089 175.61C85.3852 175.6 85.4625 175.6 85.5389 175.61H112.029C113.029 175.61 113.209 176.69 112.259 176.9L112.029 176.89Z" fill="#3B67AE"/>
<path d="M81.4888 144.8C81.4888 144.8 80.8288 148.54 79.2488 149.45C77.6688 150.36 79.0288 152.71 79.8788 153.71C82.2988 156.52 81.7188 159.36 80.9288 160.53C77.7588 165.24 70.8488 165.72 69.6388 164.3C68.2188 162.63 68.2288 156.49 69.2088 153.09C70.1888 149.69 74.8088 147.4 75.5088 145.96C76.2088 144.52 78.8288 140.59 81.8888 141.38C84.9488 142.17 86.1788 144.61 85.1288 146.71C85.1288 146.71 82.2288 146.41 81.4888 144.8Z" fill="#404142"/>
<path d="M132.799 154.71C127.582 156.723 123.222 160.479 120.459 165.34C115.869 173.47 122.039 176.62 127.019 176.89C131.999 177.16 138.309 177.02 138.309 177.02L146.369 176.82C146.369 176.82 146.109 175.05 136.799 174.92C133.379 174.92 126.349 173.12 125.509 172.42C124.669 171.72 122.299 169.8 130.039 164.42C137.779 159.04 136.339 154.06 132.799 154.71Z" fill="#FFB183"/>
<path d="M200.799 155.71C195.582 157.723 191.222 161.479 188.459 166.34C183.869 174.47 190.039 177.62 195.019 177.89C199.999 178.16 206.309 178.02 206.309 178.02L214.369 177.82C214.369 177.82 214.109 176.05 204.799 175.92C201.379 175.92 194.349 174.12 193.509 173.42C192.669 172.72 190.299 170.8 198.039 165.42C205.779 160.04 204.339 155.06 200.799 155.71Z" fill="#FFB183"/>
<path d="M126.099 162.67C126.559 163.61 126.949 164.58 127.349 165.54L127.559 166.07C127.589 166.125 127.616 166.182 127.639 166.24C128.309 165.68 129.099 165.08 130.039 164.42C137.779 159.04 136.339 154.06 132.799 154.71C129.677 155.891 126.844 157.725 124.489 160.09C125.109 160.895 125.648 161.759 126.099 162.67Z" fill="url(#paint21_linear)"/>
<path d="M127.619 166.34V166.27L127.539 166.1V165.97C127.479 165.84 127.429 165.7 127.369 165.57L127.159 165.07C126.839 164.28 126.499 163.47 126.159 162.7C125.712 161.792 125.176 160.931 124.559 160.13C126.928 157.763 129.77 155.923 132.899 154.73C133.107 154.691 133.317 154.671 133.529 154.67C134.012 154.644 134.49 154.781 134.887 155.058C135.284 155.335 135.577 155.737 135.719 156.2C136.259 157.91 135.129 161.12 130.199 164.55C129.289 165.18 128.489 165.79 127.799 166.37L127.619 166.34ZM127.619 166.04V166.14C128.289 165.58 129.079 164.98 129.949 164.37C134.829 160.98 135.949 157.83 135.429 156.16C135.301 155.719 135.026 155.335 134.649 155.073C134.272 154.81 133.817 154.686 133.359 154.72C133.157 154.72 132.956 154.74 132.759 154.78C129.67 155.957 126.863 157.769 124.519 160.1C125.13 160.891 125.659 161.742 126.099 162.64C126.489 163.42 126.819 164.24 127.099 165.02L127.299 165.52C127.359 165.65 127.419 165.79 127.469 165.93V166.04H127.619Z" fill="url(#paint22_linear)"/>
<path d="M95.4989 213.47C95.1202 211.543 94.2718 209.74 93.0289 208.22C92.4589 209.07 91.5289 209.03 91.1189 210.22C90.7089 211.41 92.1189 212.85 92.8789 214.28C93.6389 215.71 93.6989 218.45 93.7589 220.28C93.7724 220.848 93.9406 221.401 94.2454 221.881C94.5503 222.36 94.9803 222.747 95.4889 223C95.4889 223 95.7589 223 95.8789 222.62C95.8789 222.49 95.8789 222.35 95.9289 222.2C95.9113 221.825 95.8543 221.453 95.7589 221.09C95.4863 218.767 95.4428 216.422 95.6289 214.09C95.5889 213.84 95.5389 213.65 95.4989 213.47Z" fill="#3A389A"/>
<path d="M96.8289 228C96.0789 226.38 94.6989 224 93.6589 222.26C93.1689 222.99 92.5089 223.85 92.5889 224.44C92.6889 225.24 94.2389 226.3 94.4489 227.08C94.7489 228.19 94.1589 230.6 94.5589 231.68C94.9589 232.76 97.0589 234.77 97.9589 234.2C98.8589 233.63 97.4189 232.87 97.1389 231.74C96.9201 230.506 96.8163 229.254 96.8289 228Z" fill="#3A389A"/>
<path d="M221.029 216.31L218.029 206.76C217.499 207.17 216.899 207.37 216.589 208.28C216.149 209.59 217.589 210.91 218.349 212.33C219.109 213.75 219.169 216.5 219.219 218.33C219.253 218.897 219.439 219.444 219.757 219.913C220.076 220.383 220.515 220.759 221.029 221C221.029 221 221.789 221.06 221.299 219.09C221.11 218.176 221.02 217.244 221.029 216.31Z" fill="#4151B7"/>
<path d="M222.339 226.91L218.749 220.91C218.367 221.367 218.131 221.928 218.069 222.52C218.169 223.32 219.719 224.37 219.939 225.15C220.239 226.26 219.649 228.68 220.049 229.76C220.449 230.84 222.549 232.84 223.449 232.28C224.349 231.72 222.909 230.95 222.619 229.81C222.437 228.854 222.343 227.883 222.339 226.91Z" fill="#4151B7"/>
<path d="M323.749 147.82C321.749 157.63 320.749 179.37 320.749 179.37H358.269C358.269 179.37 356.469 156.56 355.549 149.26C366.409 166.6 373.549 149.43 366.809 140.66C358.349 129.66 349.729 124.95 346.749 123.47C346.473 123.28 346.174 123.125 345.859 123.01C345.413 119.81 344.768 116.64 343.929 113.52C344.283 112.603 344.502 111.64 344.579 110.66C344.939 106.2 342.369 102.36 338.849 102.08C335.329 101.8 331.759 105.17 331.849 109.64C331.959 116.92 333.929 117.74 337.309 118.2C337.042 119.846 336.497 121.436 335.699 122.9C335.549 122.9 324.029 126.73 317.519 135.8C305.279 152.8 292.169 167.36 285.379 167.6C280.889 167.76 278.619 168.11 276.569 167.93C276.473 167.93 276.379 167.96 276.3 168.016C276.221 168.071 276.162 168.15 276.129 168.24C276.096 168.331 276.092 168.429 276.117 168.522C276.142 168.615 276.195 168.698 276.269 168.76L278.339 169.44C278.819 169.55 278.989 169.83 278.759 170.01C278.103 170.525 277.352 170.904 276.549 171.128C275.745 171.351 274.906 171.413 274.079 171.31C271.509 170.84 274.939 174 276.759 174.15C278.579 174.3 283.969 171.55 284.019 171.54C285.399 171.21 303.839 165.37 313.079 158.04C316.469 155.3 320.899 150.52 323.749 147.82Z" fill="#FFB183"/>
<path d="M344.499 110.71C344.629 110.52 347.269 106.78 344.789 104.42C342.309 102.06 336.109 98.9 333.139 100.1C330.349 101.23 332.319 106.72 332.439 106.75C333.049 106.89 338.739 107.93 339.349 109.95C339.357 109.962 339.368 109.973 339.381 109.98C339.394 109.987 339.409 109.99 339.424 109.99C339.439 109.99 339.453 109.987 339.466 109.98C339.48 109.973 339.491 109.962 339.499 109.95C339.939 109.52 341.439 108.18 341.749 109.87C341.929 111 341.83 112.157 341.459 113.24C341.452 113.25 341.448 113.261 341.445 113.272C341.443 113.284 341.443 113.296 341.446 113.308C341.448 113.319 341.452 113.33 341.459 113.34C341.466 113.35 341.474 113.358 341.484 113.365C341.494 113.372 341.505 113.376 341.516 113.378C341.528 113.381 341.54 113.381 341.552 113.378C341.563 113.376 341.574 113.371 341.584 113.365C341.594 113.358 341.602 113.35 341.609 113.34L344.499 110.71Z" fill="#404142"/>
<path d="M332.509 115.27C332.509 115.27 336.069 116.77 337.419 115.19C339.359 112.93 339.009 111.25 339.329 111.26C340.079 111.26 342.619 114.85 340.279 116.95C337.339 119.59 333.279 122.74 332.659 119.34C332.099 116.37 332.509 115.27 332.509 115.27Z" fill="#404142"/>
<g style="mix-blend-mode:multiply" opacity="0.3">
<path style="mix-blend-mode:multiply" opacity="0.3" d="M320.689 150.93C321.759 149.86 322.769 148.84 323.639 148.01C322.081 156.967 321.155 166.023 320.869 175.11V175.17C320.874 175.25 320.874 175.33 320.869 175.41C320.869 175.92 320.869 176.41 320.809 176.9V177.19C320.809 177.76 320.809 178.31 320.759 178.86V179.27L345.369 179.33C345.369 179.33 323.869 145.25 316.809 136.64C311.64 143.778 305.88 150.468 299.589 156.64C293.589 162.46 288.289 166.23 284.749 167.23H284.689L285.609 171.1H285.679C288.769 170.1 304.589 164.82 313.059 158.1C315.725 155.844 318.272 153.451 320.689 150.93Z" fill="url(#paint23_linear)"/>
<path style="mix-blend-mode:multiply" opacity="0.3" d="M345.489 179.42L320.609 179.36V178.85C320.609 178.31 320.609 177.75 320.669 177.18V176.9L320.729 175.41V175C321.033 166.042 321.942 157.115 323.449 148.28C322.629 149.07 321.699 150 320.719 150.99C318.284 153.526 315.717 155.933 313.029 158.2C304.539 164.93 288.709 170.2 285.619 171.2L285.449 171.26L284.449 167.19H284.599C288.129 166.19 293.389 162.43 299.399 156.62C305.686 150.447 311.443 143.757 316.609 136.62L316.679 136.52L316.759 136.61C323.759 145.14 345.119 178.97 345.329 179.31L345.489 179.42ZM320.809 179.17L345.139 179.23C343.589 176.78 323.579 145.17 316.759 136.79C311.611 143.924 305.874 150.614 299.609 156.79C293.609 162.61 288.309 166.37 284.749 167.4L285.629 171.08C288.789 170.08 304.519 164.79 312.949 158.08C315.63 155.816 318.19 153.413 320.619 150.88C321.689 149.81 322.699 148.79 323.619 147.96L323.839 147.75L323.779 148.05C322.079 156.67 321.329 167.54 320.999 175.14V175.44L320.939 176.93V177.21C320.939 177.78 320.939 178.34 320.879 178.88L320.809 179.17Z" fill="url(#paint24_linear)"/>
</g>
<g style="mix-blend-mode:multiply" opacity="0.2">
<path d="M355.679 149.54C360.779 157.8 364.389 169.01 366.769 178.77C363.829 144.5 352.929 143.65 350.149 147.43C347.369 151.21 357.919 174.79 357.919 174.79C357.919 174.79 357.999 175.04 358.129 175.5C357.609 167.07 356.799 158.53 355.679 149.54Z" fill="#3B67AE"/>
</g>
<g style="mix-blend-mode:multiply" opacity="0.3">
<path d="M340.909 113.19C341.224 113.801 341.333 114.497 341.22 115.175C341.106 115.853 340.776 116.476 340.279 116.95C339.219 117.932 338.097 118.844 336.919 119.68C336.613 120.668 336.232 121.63 335.779 122.56C337.369 122.35 339.629 120.45 341.539 118.74C343.609 116.88 341.859 113.87 340.909 113.19Z" fill="#3A389A"/>
</g>
<path d="M320.689 150.93C321.759 149.86 322.769 148.84 323.639 148.01C321.719 157.76 320.989 170.34 320.709 179.2V179.27H358.349V179.21C357.839 169.56 356.959 159.85 355.679 149.54C360.899 158 366.929 179.35 366.929 179.35L372.929 179.41L375.549 163.93C375.549 163.93 374.649 158.32 373.959 155.74C372.605 150.287 370.2 145.151 366.879 140.62C359.079 130.45 350.949 125.48 346.809 123.42C346.521 123.233 346.216 123.072 345.899 122.94H345.839V122.76H335.629L335.579 122.87C333.225 123.644 330.962 124.67 328.829 125.93C324.362 128.368 320.463 131.725 317.389 135.78C312.065 143.24 306.103 150.223 299.569 156.65C293.569 162.47 288.269 166.24 284.729 167.24H284.669L285.589 171.11H285.659C288.749 170.11 304.569 164.83 313.039 158.11C315.712 155.852 318.266 153.455 320.689 150.93Z" fill="url(#paint25_linear)"/>
<path d="M373.029 179.51L366.869 179.44V179.37C366.809 179.16 360.969 158.57 355.869 149.98C357.129 160.13 357.979 169.69 358.479 179.2V179.37H320.609V179.2C320.879 170.44 321.609 158.01 323.479 148.29C322.659 149.08 321.729 150.01 320.749 151C318.314 153.536 315.747 155.943 313.059 158.21C304.569 164.94 288.739 170.21 285.649 171.21L285.479 171.27L284.479 167.2H284.629C288.159 166.2 293.419 162.44 299.429 156.63C305.964 150.211 311.924 143.231 317.239 135.77C321.954 129.816 328.267 125.328 335.439 122.83L335.499 122.71H345.849V122.9C346.179 123.029 346.494 123.193 346.789 123.39C350.929 125.39 359.069 130.39 366.889 140.61C370.231 145.133 372.657 150.266 374.029 155.72C374.719 158.27 375.619 163.86 375.629 163.92L373.029 179.51ZM367.029 179.25L372.869 179.31L375.489 163.93C375.429 163.6 374.559 158.24 373.899 155.77C372.549 150.327 370.147 145.201 366.829 140.68C359.039 130.52 350.929 125.56 346.829 123.51C346.555 123.319 346.26 123.161 345.949 123.04H345.869V122.99V122.88H335.809L335.759 122.97C328.604 125.434 322.311 129.905 317.629 135.85C312.302 143.313 306.336 150.3 299.799 156.73C293.799 162.55 288.499 166.31 284.939 167.34L285.819 171.02C288.979 170.02 304.709 164.73 313.139 158.02C315.82 155.756 318.38 153.353 320.809 150.82C321.879 149.75 322.889 148.73 323.809 147.9L324.029 147.69L323.969 147.99C322.049 157.73 321.319 170.29 321.039 179.13H358.479C357.969 169.49 357.099 159.8 355.809 149.5L355.749 149.06L355.989 149.44C360.779 157.62 366.609 177.9 367.029 179.25Z" fill="url(#paint26_linear)"/>
<path d="M340.099 122.75L344.719 121.3L344.509 126.41L340.099 122.75Z" fill="#3A389A"/>
<path d="M335.279 121.24L335.329 126.44L340.099 122.75L335.279 121.24Z" fill="#3A389A"/>
<path d="M222.319 175.12H237.669V170.71H222.319V175.12Z" fill="#D9E0FF"/>
<path d="M232.549 175.12H247.309V170.71H232.549V175.12Z" fill="#FFFCFC"/>
<path d="M222.159 175.65H247.089C247.17 175.657 247.251 175.647 247.328 175.621C247.404 175.595 247.475 175.554 247.535 175.499C247.595 175.445 247.643 175.379 247.677 175.305C247.71 175.231 247.728 175.151 247.729 175.07V171C247.734 170.941 247.728 170.882 247.709 170.826C247.691 170.769 247.661 170.718 247.621 170.673C247.582 170.629 247.534 170.594 247.48 170.569C247.426 170.544 247.368 170.531 247.309 170.53H222.029V170.82H247.289C247.339 170.82 247.419 170.82 247.419 171V175.09C247.416 175.133 247.405 175.174 247.386 175.212C247.367 175.25 247.34 175.284 247.307 175.311C247.274 175.339 247.236 175.359 247.195 175.371C247.154 175.382 247.111 175.386 247.069 175.38H222.159V175.65Z" fill="#6E0BAF"/>
<path d="M247.089 175.75H222.029V175.26H247.029C247.229 175.26 247.279 175.15 247.279 175.06V171C247.279 170.92 247.279 170.92 247.279 170.92H221.949V170.43H247.309C247.381 170.431 247.452 170.447 247.518 170.477C247.584 170.506 247.643 170.549 247.692 170.603C247.741 170.656 247.778 170.719 247.802 170.787C247.825 170.856 247.834 170.928 247.829 171V175.09C247.824 175.182 247.801 175.272 247.761 175.355C247.721 175.438 247.665 175.512 247.596 175.574C247.527 175.635 247.447 175.682 247.36 175.712C247.273 175.743 247.181 175.755 247.089 175.75ZM222.249 175.55H247.089C247.157 175.557 247.225 175.55 247.29 175.529C247.354 175.508 247.414 175.474 247.465 175.429C247.515 175.384 247.556 175.328 247.584 175.267C247.613 175.205 247.628 175.138 247.629 175.07V171C247.635 170.954 247.63 170.907 247.617 170.862C247.604 170.818 247.581 170.776 247.551 170.741C247.521 170.705 247.484 170.676 247.443 170.655C247.401 170.634 247.355 170.622 247.309 170.62H222.139V170.73H247.309C247.419 170.73 247.529 170.81 247.529 171V175.09C247.528 175.145 247.516 175.199 247.492 175.249C247.469 175.298 247.435 175.343 247.394 175.378C247.352 175.414 247.304 175.441 247.251 175.457C247.199 175.473 247.143 175.477 247.089 175.47H222.249V175.55Z" fill="#6E0BAF"/>
<path d="M222.589 163.69H237.939V160.55H222.589V163.69Z" fill="#D9E0FF"/>
<path d="M232.819 163.69H247.579V160.55H232.819V163.69Z" fill="#FFFCFC"/>
<path d="M222.419 163.7H247.359C247.499 163.7 247.559 163.7 247.569 163.7V160.81C247.553 160.756 247.522 160.707 247.479 160.67H222.309V160.11H247.669L247.739 160.16C247.848 160.233 247.939 160.329 248.007 160.441C248.074 160.554 248.116 160.68 248.129 160.81V163.72C248.129 163.96 247.929 164.31 247.359 164.31H222.419V163.7Z" fill="#0DB7AE"/>
<path d="M221.309 166.45H236.659V164.48H221.309V166.45Z" fill="#D9E0FF"/>
<path d="M231.539 166.45H246.469V164.48H231.539V166.45Z" fill="#6D22FD"/>
<path d="M221.139 166.7H246.079C246.679 166.7 246.709 166.41 246.709 166.36V164.53C246.709 164.33 246.499 164.23 246.289 164.23H221.029V164.53H246.289H246.419V166.31C246.419 166.31 246.329 166.38 246.079 166.38H221.139V166.7Z" fill="#6D22FD"/>
<path d="M221.309 159.66H236.659V156.54H221.309V159.66Z" fill="#D9E0FF"/>
<path d="M231.539 159.66H246.409V156.54H231.539V159.66Z" fill="#E83192"/>
<path d="M221.139 160H246.079C246.679 160 246.709 159.55 246.709 159.46V156.57C246.714 156.512 246.708 156.453 246.689 156.397C246.67 156.341 246.64 156.29 246.601 156.247C246.561 156.203 246.513 156.169 246.459 156.145C246.406 156.122 246.347 156.11 246.289 156.11H221.029V156.57H246.289C246.331 156.559 246.376 156.559 246.419 156.57V159.39C246.419 159.39 246.329 159.5 246.079 159.5H221.139V160Z" fill="#E83192"/>
<path d="M145.309 176.66H160.659V173.54H145.309V176.66Z" fill="#D9E0FF"/>
<path d="M155.539 176.66H170.409V173.54H155.539V176.66Z" fill="#E83192"/>
<path d="M145.139 177H170.079C170.679 177 170.709 176.55 170.709 176.46V173.57C170.714 173.512 170.708 173.453 170.689 173.397C170.67 173.341 170.64 173.29 170.601 173.247C170.561 173.203 170.513 173.169 170.459 173.145C170.406 173.122 170.347 173.11 170.289 173.11H145.029V173.57H170.289C170.331 173.559 170.376 173.559 170.419 173.57V176.39C170.419 176.39 170.329 176.5 170.079 176.5H145.139V177Z" fill="#E83192"/>
<path d="M245.459 167H231.749V170.09H245.459V167Z" fill="#FFFCFC"/>
<path d="M237.909 167H223.149V170.09H237.909V167Z" fill="#D9E0FF"/>
<path d="M223.579 170.39H245.579V170.1H223.579C223.319 170.1 223.289 169.98 223.289 169.94V167.07C223.289 167.01 223.339 166.99 223.389 166.99H245.709V166.7H223.389C223.339 166.697 223.288 166.705 223.241 166.722C223.194 166.74 223.151 166.766 223.114 166.801C223.078 166.836 223.049 166.877 223.029 166.924C223.009 166.97 222.999 167.02 222.999 167.07V169.94C223.029 170.1 223.119 170.39 223.579 170.39Z" fill="#FFAA71"/>
<path d="M283.789 114.93L265.209 124.5L246.549 114.93V100.2H283.789V114.93Z" fill="#5CEEEF"/>
<path d="M265.139 73.35L231.819 92L265.139 110.66L298.459 92L265.139 73.35Z" fill="#00BABB"/>
<path d="M232.679 111.45H231.749V91.94L264.589 90.54L264.629 91.47L232.679 92.83V111.45Z" fill="#5CEEEF"/>
<path d="M229.029 118.75H235.399L233.199 111.92C233.145 111.704 233.02 111.512 232.844 111.375C232.668 111.238 232.452 111.163 232.229 111.163C232.006 111.163 231.789 111.238 231.614 111.375C231.438 111.512 231.313 111.704 231.259 111.92L229.029 118.75Z" fill="#FFAA71"/>
<path d="M264.569 92.4C265.469 92.4 266.199 91.6702 266.199 90.77C266.199 89.8698 265.469 89.14 264.569 89.14C263.669 89.14 262.939 89.8698 262.939 90.77C262.939 91.6702 263.669 92.4 264.569 92.4Z" fill="#FFAA71"/>
<defs>
<linearGradient id="paint0_linear" x1="-2683.09" y1="1220.85" x2="-2604" y2="1189.37" gradientUnits="userSpaceOnUse">
<stop stop-color="#008280"/>
<stop offset="0.26" stop-color="#008684"/>
<stop offset="0.52" stop-color="#009190"/>
<stop offset="0.78" stop-color="#00A4A4"/>
<stop offset="0.99" stop-color="#00BABB"/>
</linearGradient>
<linearGradient id="paint1_linear" x1="-54875.8" y1="171580" x2="-52337.3" y2="172832" gradientUnits="userSpaceOnUse">
<stop stop-color="#008280"/>
<stop offset="0.26" stop-color="#008684"/>
<stop offset="0.52" stop-color="#009190"/>
<stop offset="0.78" stop-color="#00A4A4"/>
<stop offset="0.99" stop-color="#00BABB"/>
</linearGradient>
<linearGradient id="paint2_linear" x1="165.924" y1="59.454" x2="196.844" y2="23.3008" gradientUnits="userSpaceOnUse">
<stop stop-color="#00BABB"/>
<stop offset="0.61" stop-color="#5CEEEF"/>
<stop offset="0.64" stop-color="#69EFF0"/>
<stop offset="0.75" stop-color="#8FF4F2"/>
<stop offset="0.85" stop-color="#ABF7F4"/>
<stop offset="0.94" stop-color="#BCF8F5"/>
<stop offset="1" stop-color="#C2F9F5"/>
</linearGradient>
<linearGradient id="paint3_linear" x1="264.149" y1="46" x2="264.149" y2="161.95" gradientUnits="userSpaceOnUse">
<stop stop-color="#EEFFFF"/>
<stop offset="0.52" stop-color="#D5FCF9"/>
<stop offset="1" stop-color="#C2F9F5"/>
</linearGradient>
<linearGradient id="paint4_linear" x1="41.6689" y1="228.21" x2="193.339" y2="228.21" gradientUnits="userSpaceOnUse">
<stop stop-color="#DBFFFD"/>
<stop offset="0.29" stop-color="#94E9E8"/>
<stop offset="0.63" stop-color="#45D0D0"/>
<stop offset="0.88" stop-color="#13C0C1"/>
<stop offset="1" stop-color="#00BABB"/>
</linearGradient>
<linearGradient id="paint5_linear" x1="203.03" y1="16023.6" x2="13427" y2="16023.6" gradientUnits="userSpaceOnUse">
<stop stop-color="#DBFFFD"/>
<stop offset="0.29" stop-color="#94E9E8"/>
<stop offset="0.63" stop-color="#45D0D0"/>
<stop offset="0.88" stop-color="#13C0C1"/>
<stop offset="1" stop-color="#00BABB"/>
</linearGradient>
<linearGradient id="paint6_linear" x1="13946.8" y1="15566.3" x2="37997.5" y2="14068.6" gradientUnits="userSpaceOnUse">
<stop stop-color="#DBFFFD"/>
<stop offset="0.29" stop-color="#94E9E8"/>
<stop offset="0.63" stop-color="#45D0D0"/>
<stop offset="0.88" stop-color="#13C0C1"/>
<stop offset="1" stop-color="#00BABB"/>
</linearGradient>
<linearGradient id="paint7_linear" x1="212.499" y1="149.21" x2="208.749" y2="182.91" gradientUnits="userSpaceOnUse">
<stop stop-color="#EE7872"/>
<stop offset="0.29" stop-color="#EE7A75"/>
<stop offset="0.49" stop-color="#EF827E"/>
<stop offset="0.68" stop-color="#EF8E8E"/>
<stop offset="0.84" stop-color="#F1A0A4"/>
<stop offset="1" stop-color="#F2B7C1"/>
</linearGradient>
<linearGradient id="paint8_linear" x1="204.459" y1="151.81" x2="204.459" y2="182.73" gradientUnits="userSpaceOnUse">
<stop stop-color="#E0DFED"/>
<stop offset="0.29" stop-color="#D9D9EB"/>
<stop offset="0.73" stop-color="#C5C8E4"/>
<stop offset="1" stop-color="#B5BADF"/>
</linearGradient>
<linearGradient id="paint9_linear" x1="195.879" y1="167.27" x2="213.039" y2="167.27" gradientUnits="userSpaceOnUse">
<stop stop-color="#E0DFED"/>
<stop offset="0.51" stop-color="#C8CAE5"/>
<stop offset="1" stop-color="#B5BADF"/>
</linearGradient>
<linearGradient id="paint10_linear" x1="2080.84" y1="1945.82" x2="2080.84" y2="2075.78" gradientUnits="userSpaceOnUse">
<stop stop-color="#E0DFED"/>
<stop offset="0.29" stop-color="#D9D9EB"/>
<stop offset="0.73" stop-color="#C5C8E4"/>
<stop offset="1" stop-color="#B5BADF"/>
</linearGradient>
<linearGradient id="paint11_linear" x1="2058.04" y1="2030.25" x2="2150.33" y2="2030.25" gradientUnits="userSpaceOnUse">
<stop stop-color="#E0DFED"/>
<stop offset="0.51" stop-color="#C8CAE5"/>
<stop offset="1" stop-color="#B5BADF"/>
</linearGradient>
<linearGradient id="paint12_linear" x1="200.859" y1="142.7" x2="200.859" y2="178.8" gradientUnits="userSpaceOnUse">
<stop stop-color="#EE7872"/>
<stop offset="0.47" stop-color="#EE7974"/>
<stop offset="0.64" stop-color="#EE7F7B"/>
<stop offset="0.76" stop-color="#EF8886"/>
<stop offset="0.86" stop-color="#F09697"/>
<stop offset="0.94" stop-color="#F1A7AD"/>
<stop offset="1" stop-color="#F2B7C1"/>
</linearGradient>
<linearGradient id="paint13_linear" x1="78.9689" y1="153.77" x2="78.9689" y2="184.69" gradientUnits="userSpaceOnUse">
<stop stop-color="#FA877B"/>
<stop offset="0.1" stop-color="#F97C79"/>
<stop offset="0.49" stop-color="#F75773"/>
<stop offset="0.8" stop-color="#F6406F"/>
<stop offset="1" stop-color="#F5386E"/>
</linearGradient>
<linearGradient id="paint14_linear" x1="1272.42" y1="5407.98" x2="1565.58" y2="5407.98" gradientUnits="userSpaceOnUse">
<stop stop-color="#FA877B"/>
<stop offset="0.1" stop-color="#F97C79"/>
<stop offset="0.49" stop-color="#F75773"/>
<stop offset="0.8" stop-color="#F6406F"/>
<stop offset="1" stop-color="#F5386E"/>
</linearGradient>
<linearGradient id="paint15_linear" x1="764.257" y1="1977.32" x2="764.257" y2="2107.8" gradientUnits="userSpaceOnUse">
<stop stop-color="#FA877B"/>
<stop offset="0.1" stop-color="#F97C79"/>
<stop offset="0.49" stop-color="#F75773"/>
<stop offset="0.8" stop-color="#F6406F"/>
<stop offset="1" stop-color="#F5386E"/>
</linearGradient>
<linearGradient id="paint16_linear" x1="727.352" y1="2056.43" x2="819.646" y2="2056.43" gradientUnits="userSpaceOnUse">
<stop stop-color="#FA877B"/>
<stop offset="0.1" stop-color="#F97C79"/>
<stop offset="0.49" stop-color="#F75773"/>
<stop offset="0.8" stop-color="#F6406F"/>
<stop offset="1" stop-color="#F5386E"/>
</linearGradient>
<linearGradient id="paint17_linear" x1="104480" y1="3802.5" x2="104480" y2="4378.74" gradientUnits="userSpaceOnUse">
<stop stop-color="#E0DFED"/>
<stop offset="0.51" stop-color="#C8CAE5"/>
<stop offset="1" stop-color="#B5BADF"/>
</linearGradient>
<linearGradient id="paint18_linear" x1="105574" y1="3813.23" x2="105574" y2="4394.77" gradientUnits="userSpaceOnUse">
<stop stop-color="#E0DFED"/>
<stop offset="0.51" stop-color="#C8CAE5"/>
<stop offset="1" stop-color="#B5BADF"/>
</linearGradient>
<linearGradient id="paint19_linear" x1="146.269" y1="198.66" x2="146.269" y2="198.74" gradientUnits="userSpaceOnUse">
<stop stop-color="#8BADDB"/>
<stop offset="0.06" stop-color="#739AD0"/>
<stop offset="0.12" stop-color="#618BC7"/>
<stop offset="0.16" stop-color="#5B86C4"/>
<stop offset="0.19" stop-color="#5983C1"/>
<stop offset="0.54" stop-color="#45639A"/>
<stop offset="0.83" stop-color="#394F82"/>
<stop offset="1" stop-color="#344879"/>
</linearGradient>
<linearGradient id="paint20_linear" x1="136049" y1="10822.8" x2="136049" y2="14796.8" gradientUnits="userSpaceOnUse">
<stop stop-color="#8BADDB"/>
<stop offset="0.06" stop-color="#739AD0"/>
<stop offset="0.12" stop-color="#618BC7"/>
<stop offset="0.16" stop-color="#5B86C4"/>
<stop offset="0.19" stop-color="#5983C1"/>
<stop offset="0.54" stop-color="#45639A"/>
<stop offset="0.83" stop-color="#394F82"/>
<stop offset="1" stop-color="#344879"/>
</linearGradient>
<linearGradient id="paint21_linear" x1="1452.26" y1="2013.84" x2="1759.79" y2="2013.84" gradientUnits="userSpaceOnUse">
<stop stop-color="#E0DFED"/>
<stop offset="0.51" stop-color="#C8CAE5"/>
<stop offset="1" stop-color="#B5BADF"/>
</linearGradient>
<linearGradient id="paint22_linear" x1="1469.25" y1="2032.66" x2="1782.34" y2="2032.66" gradientUnits="userSpaceOnUse">
<stop stop-color="#E0DFED"/>
<stop offset="0.51" stop-color="#C8CAE5"/>
<stop offset="1" stop-color="#B5BADF"/>
</linearGradient>
<linearGradient id="paint23_linear" x1="301.257" y1="214.268" x2="333.75" y2="116.218" gradientUnits="userSpaceOnUse">
<stop stop-color="#3B67AE"/>
<stop offset="0.08" stop-color="#5171B0"/>
<stop offset="0.32" stop-color="#8A8AB6"/>
<stop offset="0.54" stop-color="#B79DBB"/>
<stop offset="0.73" stop-color="#D7ABBE"/>
<stop offset="0.89" stop-color="#EBB4C0"/>
<stop offset="1" stop-color="#F2B7C1"/>
</linearGradient>
<linearGradient id="paint24_linear" x1="301.286" y1="214.279" x2="333.78" y2="116.229" gradientUnits="userSpaceOnUse">
<stop stop-color="#EE7872"/>
<stop offset="1" stop-color="#F2B7C1"/>
</linearGradient>
<linearGradient id="paint25_linear" x1="29244.3" y1="13055.8" x2="30500.9" y2="7174.73" gradientUnits="userSpaceOnUse">
<stop stop-color="#00BABB"/>
<stop offset="0.61" stop-color="#5CEEEF"/>
<stop offset="0.64" stop-color="#69EFF0"/>
<stop offset="0.75" stop-color="#8FF4F2"/>
<stop offset="0.85" stop-color="#ABF7F4"/>
<stop offset="0.94" stop-color="#BCF8F5"/>
<stop offset="1" stop-color="#C2F9F5"/>
</linearGradient>
<linearGradient id="paint26_linear" x1="29329.3" y1="13090.2" x2="30589" y2="7193.37" gradientUnits="userSpaceOnUse">
<stop stop-color="#E0DFED"/>
<stop offset="0.51" stop-color="#C8CAE5"/>
<stop offset="1" stop-color="#B5BADF"/>
</linearGradient>
</defs>
</svg>
